<?xml version="1.0" encoding="iso-8859-1"?>
<!-- Generator: Adobe Illustrator 19.2.1, SVG Export Plug-In . SVG Version: 6.00 Build 0)  -->
<!DOCTYPE svg PUBLIC "-//W3C//DTD SVG 1.1//EN" "http://www.w3.org/Graphics/SVG/1.1/DTD/svg11.dtd">
<svg version="1.1" xmlns="http://www.w3.org/2000/svg" xmlns:xlink="http://www.w3.org/1999/xlink" x="0px" y="0px"
	 viewBox="0 0 828.66 828.67" style="enable-background:new 0 0 828.66 828.67;" xml:space="preserve">
<g id="Corner">
	<g>
		<g>
			<g>
				<path style="fill:#ACBF65;" d="M419.655,828.635c-157.91,2.03-296.31-84.55-367.89-213.61c-11.01-19.84-20.44-40.7-28.11-62.39
					c-14.74-41.63-23.02-86.36-23.62-132.98c-2.95-228.81,180.16-416.68,408.97-419.62c192.63-2.48,356.24,126.9,404.92,304.4v0.01
					c6.57,23.96,11.05,48.81,13.21,74.32c0.86,9.98,1.36,20.06,1.49,30.24C831.575,637.815,648.465,825.695,419.655,828.635z"/>
			</g>
		</g>
		<path style="fill:#FFFFFF;" d="M813.925,304.445l-126.71,159.45c-35.57-22.8-121.38-63.48-234.96-20.89
			c-101.9,38.21-147.93,108.21-167.1,149.72l-261.5-40.09l28.11,62.39l523.2,73.4l252.17-309.66
			C824.975,353.255,820.495,328.405,813.925,304.445z M552.305,633.685l-211.54-32.44c20.23-33.03,65.63-90.08,148.3-114.82
			c84-25.13,143.44-3.92,171.49,11.03L552.305,633.685z"/>
	</g>
</g>
<g id="Livello_1">
</g>
</svg>
