<?xml version="1.0" encoding="iso-8859-1"?>
<!-- Generator: Adobe Illustrator 19.2.1, SVG Export Plug-In . SVG Version: 6.00 Build 0)  -->
<!DOCTYPE svg PUBLIC "-//W3C//DTD SVG 1.1//EN" "http://www.w3.org/Graphics/SVG/1.1/DTD/svg11.dtd">
<svg version="1.1" xmlns="http://www.w3.org/2000/svg" xmlns:xlink="http://www.w3.org/1999/xlink" x="0px" y="0px"
	 viewBox="0 0 823.215 827.359" style="enable-background:new 0 0 823.215 827.359;" xml:space="preserve">
<g id="Cup">
	<g>
		<g>
			<g>
				<path style="fill:#ACBF65;" d="M475.978,826.52c1.83-0.02,3.49-0.05,4.97-0.06C479.518,826.48,477.868,826.5,475.978,826.52z"/>
			</g>
			<g>
				<path style="fill:#ACBF65;" d="M820.178,462.93c-1.61,13.17-3.88,26.48-6.85,39.9c-25.72,116.33-101.61,213.45-201.46,270.27
					c-14.35,8.18-29.19,15.52-44.45,21.95c-47.26,19.95-98.51,31.32-151.45,32.24c0.43,0,0.85-0.01,1.28-0.01
					c-0.84,0.01-1.69,0.02-2.56,0.03c-0.2,0-0.4,0.01-0.61,0.01c-0.22,0-0.44,0.01-0.66,0.01c-0.41,0-0.82,0.01-1.23,0.01
					c-0.2,0.01-0.4,0.01-0.6,0.01h-0.11c-0.09,0-0.18,0.01-0.27,0c-228.39,1.47-380.43-172.86-407.03-364.42
					c-19.86-142.96,30.14-295.51,170.4-391.77C246.348,21.91,324.278,0,400.418,0C634.488,0,851.578,207.04,820.178,462.93z"/>
			</g>
		</g>
		<path style="fill:#52A3D9;" d="M820.178,462.93h-816c-19.86-142.96,30.14-295.51,170.4-391.77C246.348,21.91,324.278,0,400.418,0
			C634.488,0,851.578,207.04,820.178,462.93z"/>
		<path style="fill:#FFFFFF;" d="M704.033,195.844c-53.037,6.892-58.625,12.479-65.517,65.517
			c-6.892-53.037-12.479-58.625-65.517-65.517c53.037-6.892,58.625-12.479,65.517-65.517
			C645.409,183.365,650.996,188.952,704.033,195.844z"/>
		<path style="fill:#FFFFFF;" d="M359.323,130.327c-27.32,3.55-30.198,6.428-33.748,33.748c-3.55-27.32-6.428-30.198-33.748-33.748
			c27.32-3.55,30.198-6.428,33.748-33.748C329.125,123.899,332.003,126.777,359.323,130.327z"/>
		<path style="fill:#FFFFFF;" d="M157.996,334.757c-44.258,5.751-48.92,10.414-54.671,54.671
			c-5.751-44.258-10.414-48.92-54.671-54.671c44.258-5.751,48.92-10.414,54.671-54.671
			C109.076,324.343,113.739,329.006,157.996,334.757z"/>
		<g>
			<path style="fill:#FFE2C5;" d="M611.868,773.1c-14.35,8.18-29.19,15.52-44.45,21.95c-28.73-39.59-65.16-89.48-77.9-97.93
				c-18.85-12.5-46.79-22.51-72.19-32.82c-13.3-5.41-25.91-10.89-36.15-16.85c5.34-24.56,10.69-49.11,16.04-73.67
				c0.41-1.87,0.81-3.74,1.22-5.61c1.35-6.17,2.87-12.63,5.49-18.36c0.27-0.62,0.57-1.23,0.87-1.82c0.05-0.09,0.09-0.18,0.14-0.27
				c2.05-3.93,4.7-7.43,8.28-10.12c1.06,1.05,2.13,2.08,3.22,3.09c0.16,0.17,0.33,0.32,0.5,0.48c2.64,2.45,5.38,4.81,8.19,7.07
				c7.33,5.92,15.19,11.16,23.47,15.65c3.49-12.49,6.97-24.99,10.46-37.49c2.98-10.68,6.18-21.77,13.58-30.03
				s20.33-12.69,29.87-7.04c-4.51,33.21-9.02,66.42-13.53,99.63c-0.87,6.4-1.72,13.04,0.17,19.21c1.57,5.12,4.91,9.49,8.18,13.73
				C512.318,641.34,574.098,723.24,611.868,773.1z"/>
			<g>
				<g>
					<path style="fill:#E8B601;" d="M528.698,390.604c0.256-0.05,0.508-0.104,0.762-0.155c1.051-0.213,2.092-0.439,3.122-0.679
						c0.248-0.058,0.5-0.112,0.747-0.171c1.073-0.258,2.13-0.535,3.179-0.822c0.442-0.12,0.882-0.243,1.319-0.368
						c0.925-0.265,1.842-0.539,2.749-0.826c76.624-24.224,85.903-124.393,85.903-124.393h-119l-1.53,79.73l-0.85,44.18l-0.11,5.73
						c1.66,0,3.3-0.03,4.92-0.09c0.81-0.03,1.61-0.07,2.41-0.11c2.39-0.13,4.74-0.33,7.03-0.59c0.31-0.03,0.62-0.06,0.92-0.1
						c0,0-0.01-0.01,0-0.01c1.346-0.161,2.67-0.349,3.983-0.552c0.244-0.038,0.488-0.074,0.73-0.113
						C526.235,391.063,527.474,390.844,528.698,390.604z M530.288,369.73c-0.48,0.13-0.96,0.25-1.45,0.36
						c-0.56,0.15-1.13,0.28-1.7,0.4c-0.57,0.13-1.14,0.25-1.72,0.37l0.48-25.19l0.81-41.87l0.39-20.61h75.25
						c-2.71,10.54-7.04,23.67-13.83,36.61c-8.28,15.79-18.59,28.24-30.65,36.99c-2.25,1.63-4.57,3.14-6.97,4.52
						c-0.48,0.28-0.96,0.56-1.45,0.81c-2.45,1.36-4.98,2.59-7.59,3.68c-1.04,0.45-2.09,0.87-3.15,1.26c-0.53,0.2-1.07,0.4-1.61,0.58
						c-0.46,0.17-0.92,0.33-1.39,0.48c-1.13,0.38-2.26,0.73-3.41,1.06C531.628,369.37,530.958,369.55,530.288,369.73z"/>
					<path style="opacity:0.5;fill:#05091F;" d="M525.413,370.856l1.685-87.666h42.441c0.832-6.664,1.463-13.335,1.882-20h-63.942
						l-2.492,129.638c13.301,0,25.153-1.926,35.73-5.287c3.672-8.604,7.078-17.364,10.188-26.246
						C543.138,365.788,534.624,368.989,525.413,370.856z"/>
				</g>
				<g>
					<path style="fill:#E8B601;" d="M276.998,263.19h-119c0,0,9.273,100.035,85.758,124.346l0.002,0.004
						c0.078,0.025,0.16,0.045,0.238,0.07c1.337,0.422,2.696,0.819,4.075,1.193c0.226,0.061,0.453,0.121,0.68,0.181
						c1.322,0.35,2.664,0.677,4.024,0.981c0.22,0.049,0.437,0.101,0.658,0.149c1.496,0.326,3.014,0.626,4.557,0.896
						c0.064,0.011,0.127,0.024,0.192,0.036c1.671,0.289,3.36,0.554,5.086,0.775c0.62,0.08,1.23,0.16,1.86,0.22
						c2.29,0.26,4.64,0.46,7.03,0.59c0.8,0.04,1.6,0.08,2.41,0.11c1.62,0.06,3.26,0.09,4.92,0.09L276.998,263.19z M226.608,356.79
						c-12.06-8.75-22.37-21.2-30.65-36.99c-6.78-12.94-11.12-26.07-13.83-36.61h75.25l1.69,87.67c-0.58-0.12-1.15-0.24-1.72-0.37
						c-0.57-0.12-1.14-0.25-1.7-0.4c-0.49-0.11-0.97-0.23-1.45-0.36c-1.03-0.27-2.05-0.55-3.05-0.86c-0.33-0.09-0.65-0.19-0.96-0.29
						c-0.53-0.16-1.05-0.33-1.57-0.51c-0.42-0.14-0.83-0.28-1.24-0.43c-0.54-0.18-1.07-0.37-1.6-0.58c-0.53-0.2-1.06-0.4-1.59-0.62
						c-0.46-0.17-0.91-0.36-1.36-0.55c-0.09-0.04-0.18-0.08-0.27-0.12c-2.06-0.86-4.07-1.81-6.04-2.85c-0.5-0.25-1-0.52-1.49-0.8
						c-0.49-0.26-0.98-0.53-1.46-0.82v-0.01C231.178,359.92,228.858,358.42,226.608,356.79z"/>
					<path style="opacity:0.5;fill:#05091F;" d="M259.064,370.856l-1.685-87.666h-42.441c-0.832-6.664-1.463-13.335-1.882-20h63.942
						l2.492,129.638c-13.302,0-25.153-1.926-35.73-5.287c-3.672-8.604-7.078-17.364-10.188-26.246
						C241.339,365.788,249.852,368.989,259.064,370.856z"/>
				</g>
				<path style="fill:#E8B601;" d="M425.126,608.3c0,0,22.43,21.33,71.38,22v34h-209.43v-34c48.96-0.67,71.38-22,71.38-22V477.77
					c-75.14-24.95-131.65-129.42-131.65-208.5c0-5.91,0.32-11.6,0.93-17.09h328.11c0.62,5.49,0.94,11.18,0.94,17.09
					c0,79.08-56.52,183.56-131.66,208.5V608.3z"/>
				<path style="opacity:0.5;fill:#FEFCFE;" d="M534.486,289.13c0,0,8.5,85-78,147L534.486,289.13z"/>
				<path style="opacity:0.5;fill:#FEFCFE;" d="M412.469,601.441h-3.057c-2.459,0-4.471-2.012-4.471-4.471v-97.81
					c0-2.459,2.012-4.471,4.471-4.471h3.057c2.459,0,4.471,2.012,4.471,4.471v97.81C416.94,599.429,414.928,601.441,412.469,601.441
					z"/>
			</g>
			<path style="fill:#FFE2C5;" d="M358.452,599.351c0,0-19.306-2.885-25.294-10.369c-5.988-7.484-8.661-17.527-7.184-26.998
				c11.638-1.614,23.384,1.191,34.799,3.976c9.456,2.307,19.65,5.065,25.242,13.27c0.901,1.322,1.496,2.853,1.495,4.453
				c-0.002,4.265-3.655,5.783-6.977,6.495c-7.614,1.632-15.088,0.754-22.178-2.464C358.757,592.327,358.452,599.351,358.452,599.351
				z"/>
			<path style="fill:#FFE2C5;" d="M360.339,546.168c-5.956-8.9-23.183-23.419-26.186-33.698c-1.12-3.835-1.942-8.257,0.256-11.594
				c2.319-3.521,7.1-4.41,11.313-4.244c7.051,0.279,13.853,2.59,20.433,5.141c12.382,4.799,24.403,10.528,35.928,17.123
				c4.984,2.852,10.079,6.068,12.954,11.039c2.875,4.971,2.686,12.183-1.905,15.632c-2.389,1.795-5.501,2.29-8.486,2.433
				c-16.253,0.779-28.96-5.746-43.312-13.412C358.995,538.847,361.4,539.444,360.339,546.168L360.339,546.168z"/>
			<path style="opacity:0.6;fill:#05091F;" d="M402.017,551.122c0,0-5.814-14.5-27.032-25c-21.218-10.5-39.897-3.457-39.897-3.457
				L402.017,551.122z"/>
			<path style="fill:#FFE2C5;" d="M359.517,572.122c-5.956-8.9-28.36-23.647-31.363-33.927c-1.12-3.835-1.942-8.257,0.256-11.594
				c2.319-3.521,7.1-4.41,11.313-4.244c7.051,0.279,13.853,2.59,20.433,5.141c12.382,4.799,24.403,10.528,35.928,17.123
				c4.984,2.852,10.079,6.068,12.954,11.039s2.686,12.183-1.905,15.632c-2.389,1.795-5.501,2.29-8.486,2.433
				c-16.253,0.779-25.839-4.55-40.191-12.216C358.501,565.88,360.578,565.398,359.517,572.122L359.517,572.122z"/>
			<path style="fill:#FFE2C5;" d="M356.434,505.882c-7.345-3.971-12.308-11.311-13.126-19.62c-0.012-0.117-0.023-0.234-0.034-0.351
				c-0.429-4.544,0.703-9.465,4.025-12.594c3.153-2.97,7.81-3.889,12.117-3.425c4.306,0.465,8.373,2.15,12.37,3.818
				c13.053,5.444,26.105,10.888,39.158,16.332c3.039,1.267,6.138,2.572,8.603,4.756s4.223,5.444,3.751,8.703
				c-0.518,3.579-3.628,6.36-7.06,7.499c-3.432,1.139-7.152,0.927-10.75,0.559c-16.929-1.734-31.541-6.584-46.639-14.437
				c-0.555,2.696-0.394,9.833-0.394,9.833S357.643,506.536,356.434,505.882z"/>
		</g>
	</g>
</g>
<g id="Livello_1">
</g>
</svg>
