<?xml version="1.0" encoding="iso-8859-1"?>
<!-- Generator: Adobe Illustrator 19.2.1, SVG Export Plug-In . SVG Version: 6.00 Build 0)  -->
<!DOCTYPE svg PUBLIC "-//W3C//DTD SVG 1.1//EN" "http://www.w3.org/Graphics/SVG/1.1/DTD/svg11.dtd">
<svg version="1.1" xmlns="http://www.w3.org/2000/svg" xmlns:xlink="http://www.w3.org/1999/xlink" x="0px" y="0px"
	 viewBox="0 0 828.66 828.661" style="enable-background:new 0 0 828.66 828.661;" xml:space="preserve">
<g id="Foul">
	<g>
		<g>
			<g>
				<path style="fill:#ACBF65;" d="M828.155,434.915c-4.18,86.02-34.67,165.28-83.68,229.8c-61.75,81.3-152.9,139.19-257.84,157.65
					c-8.61,1.52-17.31,2.77-26.1,3.74c-0.75,0.09-1.5,0.18-2.25,0.25l-2.43,0.24c-11.92,1.2-23.99,1.87-36.2,2.03
					c-12.68,0.17-25.24-0.25-37.65-1.21c-7.97-0.61-15.88-1.46-23.72-2.52c-131.9-17.83-244.38-97.84-306.52-209.88
					c-11.01-19.84-20.44-40.7-28.11-62.39c-14.74-41.63-23.02-86.36-23.62-132.98c-2.24-173.92,103.02-324.19,254.14-387.56
					c47.69-20,99.95-31.35,154.83-32.05c21.87-0.28,43.36,1.14,64.35,4.13c66.33,9.45,127.67,34.65,180.06,71.73
					c18.87,13.35,36.58,28.24,52.94,44.5c50.49,50.15,88.16,113.26,107.57,184.03v0.01c6.57,23.96,11.05,48.81,13.21,74.32
					c0.86,9.98,1.36,20.06,1.49,30.24C828.735,417.695,828.585,426.345,828.155,434.915z"/>
			</g>
		</g>
	</g>
	
		<ellipse transform="matrix(0.1051 -0.9945 0.9945 0.1051 -230.3801 1001.8456)" style="opacity:0.17;fill:#26251D;" cx="441.488" cy="628.934" rx="29.111" ry="305.293"/>
	<g>
		<polygon style="fill:#FFE2C5;" points="296.996,152.061 387.499,364.479 449.579,562.962 489.968,551.467 419.66,324.09 
			387.499,135.606 		"/>
		<path style="fill:#FFE2C5;" d="M706.355,120.395c-37.69,40.06-159.91,169.06-170.01,167.79c-11.97-1.49-98.73-169.03-98.73-169.03
			l72.4-42.99c0,0,38.29,125.26,42.78,105.81c2.63-11.37,56.41-64.18,100.62-106.08C672.285,89.245,689.995,104.135,706.355,120.395
			z"/>
		<path style="fill:#FFFFFF;" d="M528.865,113.165l-91.25,32.91l-28.43-28.42l-17.95,38.89l-101.72,25.43l-35.34-149.89
			c47.69-20,99.95-31.35,154.83-32.05c21.87-0.28,43.36,1.14,64.35,4.13L528.865,113.165z"/>
		<path style="fill:#FFE2C5;" d="M251.345,426.71c-3.165,1.349-5.846,2.683-7.919,3.797
			C246.291,429.689,249.098,428.602,251.345,426.71z"/>
		<path style="fill:#FFE2C5;" d="M238.663,433.286c0.005-0.004,0.03-0.019,0.042-0.027c-0.003-0.007-0.007-0.013-0.009-0.02
			C238.683,433.249,238.677,433.277,238.663,433.286z"/>
		<path style="fill:#FFD7B6;" d="M702.386,400.381c0,0-32.91,64.324-46.373,67.316c-13.463,2.992-192.792-34.406-192.792-34.406
			c-47.69,19.447-151.266-11.967-176.696-13.463c-13.568-0.793-26.268,3.082-35.184,6.881c-3.156,1.346-5.849,2.678-7.913,3.8
			c-0.613,0.165-1.212,0.344-1.81,0.494c-0.853,0.209-1.705,0.389-2.543,0.583c0.03-4.577-3.186-17.532-6.597-31.205
			c0.075-9.424,1.316-19.118,3.066-28.706c3.411,1.75,6.477,3.456,9.17,5.251c-0.449-0.539-0.928-1.092-1.406-1.646
			c8.422,4.054,19.073,5.565,30.502,6.403c59.073,4.308,116.351-1.301,175.769-3.74C558.78,373.454,702.386,400.381,702.386,400.381
			z"/>
		<path style="fill:#FFE2C5;" d="M244.715,376.925c-2.693-1.795-5.759-3.5-9.17-5.251c0.06-0.389,0.135-0.793,0.21-1.182
			c0-0.03,0.015-0.075,0.015-0.105c0.254-1.391,0.523-2.782,0.807-4.159c2.199,3.456,4.503,6.388,6.732,9.05
			C243.787,375.833,244.266,376.386,244.715,376.925z"/>
		<path style="fill:#FFE2C5;" d="M244.715,376.925c-2.693-1.795-5.759-3.5-9.17-5.251c-0.015,0-0.03,0-0.045-0.015
			c0.254-1.242,0.015-0.075,0.254-1.167c0-0.03,0.015-0.075,0.015-0.105c2.244,1.945,4.772,3.56,7.539,4.892
			C243.787,375.833,244.266,376.386,244.715,376.925z"/>
		<path style="fill:#FFE2C5;" d="M239.075,431.586c-0.007,0.86-0.122,1.438-0.379,1.653c0.003,0.007,0.007,0.013,0.009,0.02
			c0.255-0.167,1.933-1.254,4.721-2.751c-0.604,0.173-1.21,0.338-1.813,0.493C240.771,431.215,239.92,431.386,239.075,431.586z"/>
		<path style="fill:#FFE2C5;" d="M232.478,400.379c-0.091,11.045,1.431,21.718,5.595,31.438c0.334-0.076,0.668-0.152,1.002-0.231
			C239.11,427.011,235.895,414.056,232.478,400.379z"/>
		<path style="fill:#EBC989;" d="M444.227,556.986c-18.008,23.431-38.682,44.811-61.495,63.595
			c-5.12,4.216-10.872,9.448-10.299,16.055c0.41,4.723,4.091,8.539,8.105,11.061c12.933,8.122,30.224,6.353,43.74-0.758
			c13.516-7.111,23.993-18.775,33.782-30.497c9.789-11.722,19.385-23.925,31.891-32.691c7.305-5.12,16.346-10.191,17.626-19.02
			c1.372-9.461-7.146-17.304-15.373-22.173c-2.95-1.746-6.201-3.414-9.616-3.127c-3.591,0.302-6.603,2.685-9.564,4.74
			c-8.709,6.043-18.887,9.952-29.402,11.292"/>
		<path style="fill:#FFD7B6;" d="M663.493,509.582c0,0-180.968-44.888-192.954-20.948c-11.985,23.94-19.465,58.346,43.363,83.776
			c62.828,25.43,124.16,31.414,124.16,31.414L663.493,509.582z"/>
		<path style="fill:#FFFFFF;" d="M828.155,434.915c-4.18,86.02-34.67,165.28-83.68,229.8l-122.87-27.98l-16.45-16.46l26.92-125.65
			h46.38l-46.38-26.93l20.95-82.27C680.705,379.485,770.465,412.105,828.155,434.915z"/>
		<path style="fill:#E76E53;" d="M242.008,374.683c-14.521-17.834-24.601-39.256-29.087-61.813
			c-3.855-19.385-4.349-41.134-17.805-55.611c-2.124-2.285-4.672-4.388-7.733-4.99c-7.422-1.46-13.37,6.155-16.14,13.194
			c-8.766,22.275-5.746,47.436,0.268,70.606c6.014,23.17,14.901,45.738,17.685,69.513c0.929,7.938,1.595,16.854,7.617,22.108
			c3.096,2.701,7.174,3.967,11.183,4.866c11.668,2.615,23.896,2.699,35.599,0.242c-13.044-16.601-14.534-41.381-3.574-59.425"/>
	</g>
	<g>
		<circle style="fill:#FFFFFF;" cx="133.957" cy="499.347" r="67.53"/>
		<path style="fill:#FFFFFF;" d="M66.425,499.348c0-37.297,30.236-67.53,67.531-67.53c20.177,0,38.285,8.848,50.659,22.874
			c7.79,8.829,13.307,19.711,15.638,31.732v0.003c0.809,4.183,1.234,8.502,1.234,12.921c0,7.903-1.36,15.492-3.853,22.54
			c-3.325,9.389-8.667,17.823-15.502,24.781c-12.254,12.471-29.31,20.206-48.176,20.206c-5.536,0-10.914-0.667-16.065-1.923
			c-6.207-1.512-12.076-3.885-17.477-6.984c-7.544-4.325-14.174-10.066-19.529-16.858c-7.625-9.674-12.659-21.485-14.058-34.387
			C66.561,504.301,66.425,501.841,66.425,499.348z"/>
		<polygon style="fill:#1D1D1B;" points="110.485,487.459 79.786,487.57 79.786,463.918 104.383,445.21 126.025,460.75 		"/>
		<polygon style="fill:#1D1D1B;" points="138.343,548.218 114.632,528.316 126.232,499.615 157.113,501.778 164.598,531.817 		"/>
		<path style="fill:#1D1D1B;" d="M66.827,506.723l15.819,1.111l6.938,27.844l-8.699,5.433
			C73.26,531.436,68.225,519.625,66.827,506.723z"/>
		<path style="fill:#1D1D1B;" d="M174.103,460.749l10.513-6.058c7.79,8.829,13.307,19.711,15.638,31.732v0.003l-2.224,8.207
			l-19.555-3.289L174.103,460.749z"/>
		<path style="fill:#1D1D1B;" d="M100.414,557.968l10.033-3.26l7.443,10.244C111.684,563.44,105.814,561.067,100.414,557.968z"/>
		<path style="fill:#1D1D1B;" d="M182.132,546.669v-19.743l15.502-5.038C194.309,531.277,188.966,539.711,182.132,546.669z"/>
	</g>
</g>
<g id="Livello_1">
</g>
</svg>
