<svg id="Livello_1" data-name="Livello 1" xmlns="http://www.w3.org/2000/svg" xmlns:xlink="http://www.w3.org/1999/xlink" viewBox="0 0 512 512"><defs><style>.cls-1{fill:none;}.cls-2{clip-path:url(#clip-path);}.cls-3{fill:#acbf65;}.cls-4{fill:#fff;}.cls-5{fill:#545454;opacity:0.42;}.cls-6{fill:#1d1d1b;}</style><clipPath id="clip-path" transform="translate(0 0)"><circle class="cls-1" cx="256" cy="256" r="256" transform="translate(-3.27 3.31) rotate(-0.74)"/></clipPath></defs><title>Game Start</title><g class="cls-2"><g class="cls-2"><circle class="cls-3" cx="256" cy="256" r="256" transform="translate(-3.27 3.31) rotate(-0.74)"/></g></g><path class="cls-4" d="M67.39,82.91a257.2,257.2,0,0,0-23.71,30l390,327.34a257.5,257.5,0,0,0,25.49-28.54Z" transform="translate(0 0)"/><ellipse class="cls-5" cx="209.62" cy="313.5" rx="140.93" ry="26.72"/><circle class="cls-4" cx="307.94" cy="273.5" r="59.73"/><path class="cls-4" d="M248.21,273.5a59.73,59.73,0,0,1,118.36-11.43h0a59.78,59.78,0,0,1-72.84,69.45,59.21,59.21,0,0,1-15.46-6.18A60,60,0,0,1,261,310.44,59.67,59.67,0,0,1,248.21,273.5Z" transform="translate(0 0)"/><polygon class="cls-6" points="287.18 262.99 260.03 263.09 260.03 242.17 281.78 225.62 300.92 239.37 287.18 262.99"/><polygon class="cls-6" points="311.82 316.73 290.85 299.12 301.11 273.74 328.42 275.65 335.04 302.22 311.82 316.73"/><path class="cls-6" d="M248.57,280l14,1,6.14,24.63-7.69,4.8A59.4,59.4,0,0,1,248.57,280Z" transform="translate(0 0)"/><path class="cls-6" d="M343.45,239.36l9.3-5.36a59.53,59.53,0,0,1,13.83,28.06h0l-2,7.26-17.3-2.91Z" transform="translate(0 0)"/><path class="cls-6" d="M278.27,325.35l8.87-2.88,6.58,9.06A59.21,59.21,0,0,1,278.27,325.35Z" transform="translate(0 0)"/><path class="cls-6" d="M350.55,315.36V297.89l13.71-4.46A59.77,59.77,0,0,1,350.55,315.36Z" transform="translate(0 0)"/></svg>