<?xml version="1.0" encoding="iso-8859-1"?>
<!-- Generator: Adobe Illustrator 19.2.1, SVG Export Plug-In . SVG Version: 6.00 Build 0)  -->
<!DOCTYPE svg PUBLIC "-//W3C//DTD SVG 1.1//EN" "http://www.w3.org/Graphics/SVG/1.1/DTD/svg11.dtd">
<svg version="1.1" xmlns="http://www.w3.org/2000/svg" xmlns:xlink="http://www.w3.org/1999/xlink" x="0px" y="0px"
	 viewBox="0 0 828.669 828.671" style="enable-background:new 0 0 828.669 828.671;" xml:space="preserve">
<g id="GoalKeeper">
	<g>
		<g>
			<g>
				<path style="fill:#ACBF65;" d="M221.405,47.556l-0.1,0.06c-8.36,4.41-16.55,9.09-24.56,14.04l-0.25,0.15v0.01
					c-69.89,43.28-125.88,106.73-159.93,182.12c-24.2,53.54-37.33,113.1-36.53,175.73c0.46,35.96,5.49,70.8,14.54,103.96
					c2.84,10.42,6.07,20.68,9.7,30.76c9.58,26.72,21.84,52.15,36.43,75.99c11.98,19.57,25.54,38.07,40.51,55.31
					c19.51,22.5,41.4,42.86,65.28,60.71h0.01c37.23,27.83,79.27,49.53,124.62,63.64c28.48,8.87,58.27,14.73,88.99,17.25
					c13.03,1.06,26.22,1.52,39.55,1.35c15.54-0.2,30.87-1.25,45.95-3.12c30.86-3.8,60.65-11,88.99-21.19
					c161.69-58.15,276.36-213.86,274.03-395.32c-0.22-17.29-1.5-34.32-3.78-51.03c-2.08-15.37-5.02-30.47-8.74-45.25l-0.01-0.04
					c-6.01-23.81-14.07-46.8-23.98-68.75c-65.77-145.61-213.14-246.08-383.11-243.9c-30.16,0.39-59.53,3.99-87.79,10.48
					c-9.32,2.14-18.53,4.59-27.6,7.34L221.405,47.556z"/>
			</g>
		</g>
		<path style="fill:#52A3D9;" d="M792.125,243.936H36.565c34.05-75.39,90.04-138.84,159.93-182.12v-0.01l0.25-0.15
			c7.89-4.89,15.9-9.45,24.14-13.8l0.52-0.3c9.45-4.98,19.11-9.6,28.98-13.85c0.78-0.34,1.56-0.68,2.35-1
			c0.5-0.22,1.01-0.44,1.51-0.64c0.89-0.38,1.78-0.75,2.67-1.11c8.14-3.35,16.42-6.45,24.82-9.28l3.3-1.09
			c2.85-0.94,5.71-1.85,8.59-2.73c9.07-2.75,18.28-5.2,27.6-7.34c13.2-3.03,26.64-5.44,40.3-7.17l3.47-0.42
			c14.46-1.73,29.14-2.7,44.02-2.89c3.76-0.05,7.51-0.05,11.24,0.01c1.07,0.01,2.14,0.03,3.21,0.06
			c12.49,0.26,24.84,1.09,37.03,2.44c2.32,0.25,4.62,0.53,6.92,0.83c0.01,0,0.01,0,0.01,0c4.3,0.54,8.59,1.16,12.85,1.84
			c1.13,0.18,2.25,0.37,3.37,0.56c20.05,3.37,39.62,8.2,58.59,14.35c1.16,0.37,2.31,0.75,3.46,1.13c6.48,2.17,12.89,4.5,19.23,6.97
			c1.45,0.57,2.9,1.14,4.34,1.73c9.83,3.96,19.47,8.29,28.91,12.98c1.19,0.58,2.38,1.18,3.56,1.78c6.11,3.1,12.14,6.36,18.07,9.75
			c1.21,0.69,2.42,1.39,3.62,2.1h0.01c13.97,8.17,27.4,17.14,40.25,26.85c1.22,0.92,2.43,1.84,3.64,2.78
			c1.89,1.45,3.77,2.93,5.63,4.42c0.01,0,0.01,0,0.01,0c1.01,0.81,2,1.61,3,2.43c13.15,10.72,25.63,22.23,37.37,34.46
			c0.8,0.83,1.6,1.68,2.39,2.52c5.52,5.84,10.87,11.85,16.05,18.01c1.21,1.44,2.41,2.89,3.59,4.35c2.3,2.81,4.56,5.64,6.77,8.51
			c0.66,0.84,1.31,1.69,1.96,2.54c9.43,12.37,18.18,25.29,26.19,38.7c0.53,0.89,1.06,1.77,1.58,2.66
			c5.98,10.18,11.53,20.64,16.64,31.35v0.01c1.11,2.3,2.19,4.62,3.24,6.95C791.875,243.387,791.995,243.656,792.125,243.936z"/>
		<g>
			<path style="fill:#E7E2DA;" d="M554.607,636.227v168.1c-28.34,10.19-58.13,17.39-88.99,21.19v-181.11L554.607,636.227z"/>
			<path style="fill:#FDE96E;" d="M464.049,580.044c-6.082-1.364-10.836-5.985-15.084-10.547
				c-10.503-11.282-20.152-23.595-26.518-37.633c-3.205-7.068-5.579-14.914-4.107-22.534c1.472-7.619,7.805-14.729,15.565-14.84
				c5.323-0.076,10.279,3.076,13.666,7.183c3.387,4.107,5.464,9.111,7.493,14.032c-4.63-19.395-5.154-38.932-6.128-58.848
				c-0.974-19.916-2.194-40.449,7.387-57.937c3.596-6.564,9.958-13.401,17.251-11.721c6.271,1.445,9.422,8.435,10.814,14.717
				c3.026,13.66,2.267,28.402,8.534,40.911c-2.103-22.916,2.724-46.424,13.689-66.657c2.621-4.837,6.845-10.132,12.296-9.388
				c5.957,0.812,8.369,8.018,9.249,13.966c3.07,20.764,2.971,41.849,2.867,62.838c4.59-20.637,15.592-39.801,31.101-54.169
				c0.958-0.887,1.972-1.78,3.214-2.182c2.97-0.961,6.102,1.223,7.819,3.83c3.491,5.3,3.341,12.128,2.909,18.46
				c-1.21,17.716-3.664,35.347-7.339,52.72c2.981-6.699,5.961-13.398,8.942-20.097c1.8-4.045,4.009-8.485,8.177-9.978
				c6.075-2.176,12.583,3.749,13.584,10.124c1,6.375-1.727,12.674-4.305,18.589c-5.099,11.703-9.852,23.556-14.253,35.538
				c-10.89,29.654-20.084,60.958-40.467,85.093c-0.814,0.964-1.669,1.935-2.777,2.54c-1.072,0.586-2.305,0.789-3.513,0.977
				c-18.483,2.872-37.201,4.227-55.905,4.046c-2.074-0.02-4.214-0.073-6.109-0.916c-4.479-1.992-6.709-7.959-11.55-8.726"/>
			<path style="fill:#545454;" d="M468.688,581.894c0,0-16.368,38.357-3.07,66.997l90.014-9.206c0,0,9.205-52.677-7.161-61.883
				L468.688,581.894z"/>
			<path style="fill:#FDE96E;" d="M479.428,595.703c0,0-4.603,20.457-2.046,38.868l59.326-14.32l-2.046-31.158L479.428,595.703z"/>
			<path style="fill:#545454;" d="M480.856,447.551c0,0,69.941,49.233,77.402,63.299c0,0-2.798,24.97-5.595,26.552
				c0,0-89.525,27.55-89.525,25.657c0-1.894-6.062-9.468-6.062-9.468s49.425-3.787,53.155-36.248s-16.786-54.643-35.437-63.84
				L480.856,447.551z"/>
		</g>
		<g>
			<path style="fill:#FDE96E;" d="M421.729,606.647c-11.722,17.972-29.274,31.698-46.724,44.187l0,0
				c-1.739,10.525-2.782,21.163-3.13,31.821c-20.416-3.202-41.2-4.122-61.821-2.731c-1.268,0.092-2.649,0.153-3.713-0.542
				c-0.9-0.593-1.391-1.606-1.851-2.578c-21.326-45.077-47.655-87.792-78.33-127.11c-2.762-3.539-5.605-7.15-7.047-11.405
				c-2.895-8.561,2.117-19.669,11.037-21.112c6.556-1.064,12.591,2.885,17.307,7.855c4.409,9.277,10.106,18.094,15.977,26.482
				c-3.171-8.326-7.61-16.161-13.113-23.158c-0.89-1.125-1.841-2.25-2.864-3.324c-4.807-10.126-8.111-20.784-8.49-31.964
				c-0.133-3.907,0.133-7.947,1.862-11.446c1.729-3.508,5.206-6.362,9.114-6.393c2.895-0.01,5.575,1.463,7.968,3.089
				c16.918,11.446,26.216,30.921,34.757,49.475c-8.541-18.554-15.568-30.665-21.091-47.041c-2.772-8.234-3.478-17.01-3.631-25.684
				c-0.072-3.764-0.02-7.62,1.34-11.129c1.36-3.508,4.316-6.628,8.039-7.14c5.002-0.695,9.359,3.253,12.684,7.058
				c7.692,8.807,14.31,18.554,19.7,28.926c1.422,2.751,13.559,33.417,16.126,39.042c0.286-7.743-3.842-27.668-2.962-35.37
				c0.818-7.17,1.933-14.473,5.319-20.835c2.168-4.071,5.513-7.845,9.973-9.022c6.178-1.626,12.735,2.301,16.212,7.651
				c3.478,5.36,4.582,11.865,5.667,18.166c3.57,20.6,7.804,41.088,12.704,61.422c1.146,4.777,2.332,9.553,3.304,14.371
				c2.138,10.566,3.253,21.347,3.304,32.128c10.73-7.232,22.186-13.389,34.143-18.35c5.411-2.25,12.448-3.938,16.478,0.317
				c1.544,1.626,2.281,3.856,2.741,6.055C435.466,581.71,429.185,595.232,421.729,606.647z"/>
			<path style="fill:#545454;" d="M346.029,516.768c0,0-58.419,51.988-64.65,66.841c0,0,2.337,26.367,4.674,28.037
				c0,0,74.776,29.092,74.776,27.093s5.063-9.998,5.063-9.998s-41.283-3.999-44.398-38.277c-3.116-34.277,14.021-57.7,29.599-67.412
				L346.029,516.768z"/>
			<path style="fill:#E7E2DA;" d="M380.117,730.466v96.82c-30.72-2.52-60.51-8.38-88.99-17.25v-87.76L380.117,730.466z"/>
			<path style="fill:#545454;" d="M377.052,669.604c0,0,16.368,38.357,3.07,66.997l-90.014-9.206c0,0-9.205-52.677,7.161-61.883
				L377.052,669.604z"/>
			<path style="fill:#FDE96E;" d="M366.312,683.413c0,0,4.603,20.457,2.046,38.868l-59.326-14.32l2.046-31.158L366.312,683.413z"/>
			<path style="fill:#FDE96E;" d="M263.432,551.516c-5.871-8.387-11.569-17.204-15.977-26.482c1.023,1.074,1.974,2.199,2.864,3.324
				C255.822,535.354,260.261,543.189,263.432,551.516z"/>
		</g>
		<g>
			<path style="fill:#FFFFFF;" d="M202.817,652.796c0,0.79-0.01,1.58-0.02,2.37c-0.01,0.76-0.03,1.53-0.06,2.3v0.17
				c-0.02,0.55-0.05,1.09-0.07,1.64c-0.02,0.42-0.04,0.85-0.07,1.27c-0.07,1.29-0.16,2.58-0.27,3.87c-0.03,0.47-0.08,0.94-0.12,1.41
				c-0.15,1.65-0.34,3.3-0.56,4.94c-0.03,0.3-0.07,0.59-0.12,0.89c-0.01,0.15-0.03,0.31-0.06,0.46c-0.17,1.28-0.37,2.55-0.59,3.83
				c-0.1,0.63-0.21,1.26-0.33,1.9c-0.11,0.6-0.22,1.21-0.34,1.81c-0.27,1.35-0.56,2.7-0.86,4.05c-0.14,0.58-0.27,1.15-0.41,1.73
				c-0.15,0.63-0.31,1.25-0.47,1.88c-0.14,0.56-0.28,1.1-0.43,1.65c-0.36,1.33-0.73,2.65-1.13,3.96c-0.14,0.48-0.29,0.97-0.44,1.45
				c-0.11,0.34-0.22,0.69-0.33,1.04c-0.19,0.59-0.39,1.19-0.59,1.79c-0.8,2.37-1.67,4.73-2.6,7.07c-0.21,0.54-0.43,1.09-0.66,1.63
				c-0.49,1.2-1.01,2.4-1.54,3.59c-0.58,1.29-1.18,2.58-1.8,3.86c-0.32,0.66-0.64,1.31-0.97,1.97c-0.95,1.88-1.94,3.74-2.98,5.58
				c-0.12,0.22-0.25,0.45-0.38,0.67c-0.5,0.89-1.02,1.78-1.56,2.66c-0.27,0.46-0.55,0.91-0.83,1.37c-0.47,0.76-0.94,1.52-1.43,2.27
				c-0.45,0.7-0.91,1.4-1.37,2.09c-0.65,0.97-1.31,1.93-1.99,2.88c-0.51,0.72-1.02,1.44-1.55,2.15c-0.55,0.75-1.11,1.5-1.68,2.24
				c-0.05,0.06-0.1,0.12-0.14,0.18c-0.97,1.26-1.97,2.5-2.98,3.73c-0.25,0.3-0.5,0.6-0.74,0.89c-1.25,1.48-2.52,2.93-3.84,4.36
				c-0.64,0.7-1.29,1.4-1.95,2.08c0.65-0.68,1.3-1.38,1.94-2.08c-23.88-17.85-45.77-38.21-65.28-60.71l-3.88,1.71l-42.26-47.37
				l5.63-9.65c-14.59-23.84-26.85-49.27-36.43-75.99c-3.63-10.08-6.86-20.34-9.7-30.76c0.16-0.07,0.32-0.13,0.49-0.19
				c0.65-0.25,1.3-0.49,1.95-0.72c2.06-0.76,4.14-1.46,6.23-2.1c0.8-0.26,1.61-0.5,2.42-0.729c0.9-0.26,1.8-0.521,2.71-0.76
				c0.84-0.22,1.67-0.44,2.51-0.65c0.97-0.24,1.96-0.48,2.94-0.7c0.91-0.2,1.83-0.4,2.74-0.58c0.92-0.19,1.83-0.37,2.75-0.53
				c0.92-0.17,1.84-0.33,2.75-0.48c0.92-0.15,1.84-0.29,2.76-0.42s1.85-0.25,2.77-0.36c1.84-0.23,3.69-0.42,5.54-0.56
				c0.92-0.07,1.85-0.13,2.77-0.19c0.93-0.06,1.85-0.1,2.78-0.14c2.26-0.09,4.52-0.12,6.79-0.1h0.7c0.78,0.01,1.55,0.03,2.32,0.05
				c0.27,0.01,0.54,0.02,0.8,0.03c0.6,0.02,1.2,0.04,1.8,0.08c0.7,0.03,1.4,0.07,2.1,0.13c0.46,0.01,0.92,0.05,1.37,0.09
				c0.43,0.03,0.86,0.06,1.29,0.1c0.71,0.05,1.43,0.12,2.15,0.19c0.48,0.05,0.96,0.1,1.44,0.15c1.05,0.11,2.1,0.24,3.15,0.39
				c0.92,0.12,1.82,0.25,2.73,0.39c0.05,0,0.1,0.01,0.14,0.02c1.02,0.15,2.03,0.32,3.04,0.5c0.05,0.01,0.1,0.02,0.15,0.03
				c0.85,0.15,1.69,0.31,2.54,0.48c0.31,0.05,0.62,0.12,0.93,0.19c0.95,0.19,1.91,0.39,2.86,0.61c0.06,0.01,0.12,0.02,0.18,0.04
				c0.84,0.189,1.69,0.39,2.53,0.61c0.36,0.08,0.71,0.17,1.06,0.26c0.01,0,0.01,0,0.02,0.01c0.93,0.23,1.86,0.48,2.78,0.74
				c1.07,0.29,2.14,0.6,3.2,0.93c0.9,0.27,1.81,0.56,2.71,0.85c2.11,0.69,4.2,1.43,6.28,2.23c0.35,0.12,0.69,0.26,1.04,0.4
				c0.81,0.31,1.61,0.63,2.41,0.96c0.04,0.02,0.08,0.03,0.12,0.05c0.56,0.23,1.12,0.47,1.68,0.71c0.6,0.25,1.19,0.51,1.79,0.78
				c0.59,0.26,1.19,0.53,1.78,0.81c0.59,0.27,1.18,0.55,1.77,0.83c1.17,0.56,2.34,1.14,3.51,1.74c0.42,0.22,0.84,0.44,1.25,0.66
				c0.79,0.41,1.57,0.83,2.35,1.27c0.52,0.29,1.05,0.59,1.57,0.88c0.57,0.32,1.14,0.65,1.71,0.99c0.71,0.41,1.41,0.84,2.12,1.28
				c0.34,0.2,0.69,0.41,1.03,0.63c0.63,0.4,1.26,0.8,1.88,1.21c0.55,0.36,1.11,0.72,1.66,1.09c0.55,0.37,1.09,0.73,1.63,1.11
				c0.54,0.37,1.09,0.75,1.63,1.14c0.54,0.39,1.08,0.78,1.61,1.17c0.4,0.29,0.79,0.58,1.18,0.87c1.04,0.78,2.08,1.59,3.1,2.41h0.01
				c0.16,0.13,0.32,0.26,0.48,0.39c1.03,0.83,2.06,1.68,3.07,2.54c1.43,1.22,2.83,2.47,4.21,3.75c0.51,0.47,1.01,0.94,1.51,1.42
				c0.5,0.47,0.99,0.95,1.48,1.44c1.48,1.45,2.93,2.94,4.35,4.47c0.48,0.51,0.95,1.02,1.41,1.54c2.34,2.59,4.6,5.29,6.77,8.1
				C193.367,593.376,202.817,623.196,202.817,652.796z"/>
			<path style="fill:#FFFFFF;" d="M202.817,652.796c0,0.79-0.01,1.58-0.02,2.37c-0.01,0.76-0.03,1.53-0.06,2.3v0.17
				c-0.02,0.55-0.05,1.09-0.07,1.64c-0.02,0.42-0.04,0.85-0.07,1.27c-0.07,1.29-0.16,2.58-0.27,3.87c-0.03,0.47-0.08,0.94-0.12,1.41
				c-0.15,1.65-0.34,3.3-0.56,4.94c-0.03,0.29-0.07,0.59-0.11,0.88c-0.02,0.16-0.04,0.31-0.07,0.47c-0.17,1.28-0.37,2.55-0.59,3.83
				c-0.1,0.63-0.21,1.26-0.33,1.9c-0.11,0.6-0.22,1.21-0.34,1.81c-0.27,1.35-0.56,2.7-0.86,4.05c-0.14,0.58-0.27,1.15-0.41,1.73
				c-0.15,0.63-0.31,1.25-0.47,1.88c-0.14,0.56-0.28,1.1-0.43,1.65c-0.36,1.33-0.73,2.65-1.13,3.96c-0.14,0.48-0.29,0.97-0.44,1.45
				c-0.11,0.34-0.22,0.69-0.33,1.04c-0.19,0.59-0.39,1.19-0.59,1.79c-0.8,2.37-1.67,4.73-2.6,7.07c-0.21,0.54-0.43,1.09-0.66,1.63
				c-0.49,1.2-1.01,2.4-1.54,3.59c-0.58,1.29-1.18,2.58-1.8,3.86c-0.32,0.66-0.64,1.31-0.97,1.97c-0.95,1.88-1.94,3.74-2.98,5.58
				c-0.12,0.22-0.25,0.45-0.38,0.67c-0.5,0.89-1.02,1.78-1.56,2.66c-0.27,0.46-0.55,0.91-0.83,1.37c-0.47,0.76-0.94,1.52-1.43,2.27
				c-0.45,0.7-0.91,1.4-1.37,2.09c-0.65,0.97-1.31,1.93-1.99,2.88c-0.51,0.72-1.02,1.44-1.55,2.15c-0.55,0.75-1.11,1.5-1.68,2.24
				c-0.05,0.06-0.1,0.12-0.14,0.18c-0.97,1.26-1.97,2.5-2.98,3.73c-0.25,0.3-0.5,0.6-0.74,0.89c-1.25,1.48-2.53,2.93-3.85,4.36
				c-23.88-17.85-45.77-38.21-65.28-60.71l-3.88,1.71l-42.26-47.37l5.63-9.65c-14.59-23.84-26.85-49.27-36.43-75.99
				c-3.63-10.08-6.86-20.34-9.7-30.76c0.16-0.07,0.32-0.13,0.49-0.19c0.65-0.25,1.3-0.49,1.95-0.72c2.06-0.76,4.14-1.46,6.23-2.1
				c0.8-0.26,1.61-0.5,2.42-0.729c0.9-0.26,1.8-0.521,2.71-0.76c0.84-0.22,1.67-0.44,2.51-0.65c0.97-0.24,1.96-0.48,2.94-0.7
				c0.91-0.2,1.83-0.4,2.74-0.58c0.92-0.19,1.83-0.37,2.75-0.53c0.92-0.17,1.84-0.33,2.75-0.48c0.92-0.15,1.84-0.29,2.76-0.42
				s1.85-0.25,2.77-0.36c1.84-0.23,3.69-0.42,5.54-0.56c0.92-0.07,1.85-0.13,2.77-0.19c0.93-0.06,1.85-0.1,2.78-0.14
				c2.26-0.09,4.53-0.13,6.79-0.11c0.13,0,0.27,0,0.4,0.01h0.3c0.78,0.01,1.55,0.03,2.32,0.05c0.27,0.01,0.54,0.02,0.8,0.03
				c0.6,0.02,1.2,0.04,1.8,0.08c0.7,0.03,1.4,0.07,2.1,0.13c0.46,0.01,0.92,0.05,1.37,0.09c0.43,0.03,0.86,0.06,1.29,0.1
				c0.71,0.05,1.43,0.12,2.15,0.19c0.48,0.05,0.96,0.1,1.44,0.15c1.05,0.11,2.1,0.24,3.15,0.39c0.92,0.12,1.82,0.25,2.73,0.39
				c0.05,0,0.1,0.01,0.14,0.02c1.02,0.15,2.03,0.32,3.04,0.5c0.05,0.01,0.1,0.02,0.15,0.03c0.85,0.15,1.69,0.31,2.54,0.48
				c0.31,0.05,0.62,0.12,0.93,0.19c0.95,0.19,1.91,0.39,2.86,0.61c0.06,0.01,0.12,0.02,0.18,0.04c0.84,0.189,1.69,0.39,2.53,0.61
				c0.36,0.08,0.71,0.17,1.06,0.26c0.01,0,0.01,0,0.02,0.01c0.93,0.23,1.86,0.48,2.78,0.74c1.07,0.29,2.14,0.6,3.2,0.93
				c0.9,0.27,1.81,0.56,2.71,0.85c2.11,0.69,4.2,1.43,6.28,2.23c0.35,0.12,0.69,0.26,1.04,0.4c0.81,0.31,1.61,0.63,2.41,0.96
				c0.04,0.02,0.08,0.03,0.12,0.05c0.56,0.23,1.12,0.47,1.68,0.71c0.6,0.25,1.19,0.51,1.79,0.78c0.59,0.26,1.19,0.53,1.78,0.81
				c0.59,0.27,1.18,0.55,1.77,0.83c1.17,0.56,2.34,1.14,3.51,1.74c0.42,0.22,0.84,0.44,1.25,0.66c0.79,0.41,1.57,0.83,2.35,1.27
				c0.52,0.29,1.05,0.59,1.57,0.88c0.57,0.32,1.14,0.65,1.71,0.99c0.71,0.41,1.41,0.84,2.12,1.28c0.34,0.2,0.69,0.41,1.03,0.63
				c0.63,0.4,1.26,0.8,1.88,1.21c0.55,0.36,1.11,0.72,1.66,1.09c0.55,0.37,1.09,0.73,1.63,1.11c0.54,0.37,1.09,0.75,1.63,1.14
				c0.54,0.39,1.08,0.78,1.61,1.17c0.4,0.29,0.79,0.58,1.18,0.87c1.04,0.78,2.08,1.59,3.1,2.41h0.01c0.16,0.13,0.32,0.26,0.48,0.39
				c1.03,0.83,2.06,1.68,3.07,2.54c1.43,1.22,2.83,2.47,4.21,3.75c0.51,0.47,1.01,0.94,1.51,1.42c0.5,0.47,0.99,0.95,1.48,1.44
				c1.48,1.45,2.93,2.94,4.35,4.47c0.48,0.51,0.95,1.02,1.41,1.54c2.34,2.59,4.6,5.29,6.77,8.1
				C193.367,593.376,202.817,623.196,202.817,652.796z"/>
			<path style="fill:#1D1D1B;" d="M155.447,661.847l-54.23,23.84c-14.97-17.24-28.53-35.74-40.51-55.31l26.36-45.18l62.04,13.48
				L155.447,661.847z"/>
			<path style="fill:#1D1D1B;" d="M67.577,535.336l-43.3,19.05c-3.63-10.08-6.86-20.34-9.7-30.76c0.16-0.07,0.32-0.13,0.49-0.19
				c0.65-0.25,1.3-0.49,1.95-0.72c2.06-0.76,4.14-1.46,6.23-2.1c0.8-0.26,1.61-0.5,2.42-0.729c0.9-0.26,1.8-0.521,2.71-0.76
				c0.84-0.22,1.67-0.44,2.51-0.65c0.97-0.24,1.96-0.48,2.94-0.7c0.91-0.2,1.83-0.4,2.74-0.58c0.92-0.19,1.83-0.37,2.75-0.53
				c0.92-0.17,1.84-0.33,2.75-0.48c0.92-0.15,1.84-0.29,2.76-0.42s1.85-0.25,2.77-0.36c1.84-0.23,3.69-0.42,5.54-0.56
				c0.92-0.07,1.85-0.13,2.77-0.19c0.93-0.06,1.85-0.1,2.78-0.14c2.26-0.09,4.53-0.13,6.79-0.11v0.01L67.577,535.336z"/>
			<path style="fill:#1D1D1B;" d="M117.322,524.928l7.303,20.364l25.955-0.782C140.339,536.341,129.124,529.799,117.322,524.928z"/>
			<path style="fill:#1D1D1B;" d="M201.539,671.643l-32.021,24.774l11.282,31.463C191.856,710.706,198.831,691.458,201.539,671.643z
				"/>
		</g>
		<g>
			<g>
				<g>
					
						<rect x="294.302" y="271.663" transform="matrix(0.172 -0.9851 0.9851 0.172 40.2018 594.1576)" style="fill:#FFFFF0;" width="158.52" height="3"/>
				</g>
				<g>
					
						<rect x="217.945" y="252.57" transform="matrix(0.1364 -0.9907 0.9907 0.1364 44.4127 559.0864)" style="fill:#FFFFF0;" width="249.867" height="3"/>
				</g>
				<g>
					
						<rect x="138.266" y="240.296" transform="matrix(0.154 -0.9881 0.9881 0.154 26.0708 514.0396)" style="fill:#FFFFF0;" width="349.896" height="3"/>
				</g>
				<g>
					<path style="fill:#FFFFF0;" d="M252.31,442.103l-2.98-0.338c1.644-14.487,40.508-355.421,62.492-410.213l2.784,1.117
						c-9.016,22.47-22.645,100.366-39.413,225.265C262.513,352.378,252.411,441.217,252.31,442.103z"/>
				</g>
				<g>
					<polygon style="fill:#FFFFF0;" points="281.735,21.676 278.075,38.866 277.425,41.906 234.365,243.936 220.715,307.966 
						223.645,308.596 237.425,243.936 280.255,43.026 280.905,39.986 285.035,20.586 					"/>
				</g>
				<g>
					<path style="fill:#FFFFF0;" d="M254.245,32.066l-0.41,1.03l-16.95,43.55l-1.09,2.8l-12.25,31.45l-0.07,0.18l-1.03,2.65
						l-7.73,19.85l-2.8-1.09l7.87-20.2l1.1-2.83l2.34-6.02l9.79-25.13l1.09-2.79l16.28-41.81c0.78-0.34,1.56-0.68,2.35-1
						C253.235,32.486,253.745,32.267,254.245,32.066z"/>
				</g>
				<g>
					<path style="fill:#FFFFF0;" d="M305.121,402.876c-48.779-38.756-82.549-37.877-82.881-37.862l-0.12-2.998
						c1.411-0.056,35.221-0.933,84.867,38.511L305.121,402.876z"/>
				</g>
				<g>
					<path style="fill:#FFFFF0;" d="M332.872,383.58c-30.756-36-61.652-54.148-82.155-63.034
						c-22.213-9.626-37.353-10.758-37.503-10.768l0.202-2.993c0.63,0.042,15.69,1.151,38.34,10.942
						c20.833,9.006,52.212,27.403,83.397,63.904L332.872,383.58z"/>
				</g>
				<g>
					<path style="fill:#FFFFF0;" d="M364.197,355.573c-0.424-0.543-43.6-54.874-146.552-103.9l1.29-2.708
						c103.653,49.36,147.199,104.214,147.627,104.763L364.197,355.573z"/>
				</g>
				<g>
					<path style="fill:#FFFFF0;" d="M391.538,331.102c-74.564-83.297-177.667-118.565-178.7-118.911l0.954-2.844
						c1.041,0.349,104.894,35.873,179.981,119.754L391.538,331.102z"/>
				</g>
				<g>
					<path style="fill:#FFFFF0;" d="M419.517,309.304C315.931,198.319,213.778,156.654,212.758,156.246l1.114-2.786
						c1.026,0.41,103.799,42.328,207.838,153.797L419.517,309.304z"/>
				</g>
				<g>
					<path style="fill:#FFFFF0;" d="M404.376,237.872c-15.699-22.851-66.954-56.803-107.186-81.26
						c-43.695-26.562-84.17-47.951-84.574-48.165l1.399-2.653c6.612,3.487,162.289,85.921,192.833,130.38L404.376,237.872z"/>
				</g>
				<g>
					<path style="fill:#FFFFF0;" d="M386.238,159.072c-51.033-42.64-172.23-88.278-173.449-88.734l1.052-2.81
						c1.223,0.458,122.895,46.274,174.321,89.242L386.238,159.072z"/>
				</g>
				<g>
					<path style="fill:#FFFFF0;" d="M355.465,80.086l-1.99,2.24c-3.42-3.03-7.58-6.16-12.43-9.36c-0.9-0.59-1.82-1.19-2.77-1.78
						c-3.15-1.99-6.56-4.01-10.23-6.04c-5.99-3.33-12.65-6.72-19.94-10.14c-0.92-0.42-1.86-0.86-2.8-1.29
						c-7.69-3.54-16.05-7.11-25.05-10.69c-0.93-0.38-1.88-0.75-2.83-1.12c-1.68-0.67-3.39-1.33-5.11-1.99
						c-6.43-2.47-12.67-4.76-18.48-6.82c-0.37-0.13-0.74-0.26-1.1-0.39c0.5-0.22,1.01-0.44,1.51-0.64c0.89-0.38,1.78-0.75,2.67-1.11
						c6.65,2.37,13.8,5.03,21.16,7.91c0.94,0.37,1.88,0.75,2.83,1.12c8.31,3.31,16.84,6.9,25.15,10.7c0.94,0.43,1.86,0.86,2.79,1.29
						c5.57,2.61,11.04,5.31,16.25,8.09c5.44,2.89,10.61,5.88,15.37,8.92c0.36,0.23,0.73,0.46,1.09,0.7
						C346.795,73.086,351.495,76.566,355.465,80.086z"/>
				</g>
				<g>
					<path style="fill:#FFFFF0;" d="M792.395,246.026v0.01c-0.98,0.21-1.96,0.43-2.94,0.64c-14.15,3.09-28.24,6-42.19,8.75
						c-0.99,0.19-1.97,0.38-2.95,0.57c-16.63,3.25-33.06,6.25-49.18,9.03c-0.98,0.17-1.96,0.34-2.94,0.51
						c-16.17,2.77-32.02,5.31-47.43,7.64c-0.99,0.15-1.98,0.3-2.97,0.45c-14.1,2.12-27.81,4.07-41.05,5.84
						c-0.99,0.14-1.98,0.27-2.96,0.4c-14.71,1.97-28.83,3.73-42.22,5.31c-1,0.11-1.99,0.23-2.97,0.35
						c-17.52,2.04-33.77,3.77-48.43,5.22c-1,0.1-2,0.2-2.98,0.29c-11.8,1.16-22.53,2.13-32.04,2.93c-1.02,0.09-2.03,0.18-3.03,0.26
						c-16.28,1.37-28.71,2.24-36.42,2.73c-5.64,0.37-8.76,0.54-9,0.55l-0.16-3c0.24-0.01,3.28-0.17,8.79-0.53
						c7.6-0.49,19.91-1.35,36.06-2.7c0.99-0.08,2-0.17,3.03-0.25c9.59-0.82,20.44-1.8,32.38-2.97c0.99-0.09,1.99-0.19,2.99-0.29
						c14.7-1.45,30.98-3.18,48.55-5.23c0.98-0.12,1.97-0.24,2.97-0.35c13.41-1.58,27.54-3.35,42.27-5.31
						c0.98-0.13,1.97-0.27,2.96-0.4c13.24-1.78,26.95-3.73,41.04-5.85c0.98-0.14,1.97-0.29,2.96-0.45
						c15.41-2.33,31.27-4.88,47.45-7.65c0.98-0.17,1.96-0.34,2.95-0.5c16.09-2.78,32.49-5.78,49.09-9.02
						c0.98-0.2,1.97-0.39,2.95-0.58c13.56-2.67,27.25-5.5,41-8.49c0.4-0.09,0.81-0.18,1.21-0.27c0.86-0.18,1.71-0.37,2.56-0.56
						c0.13-0.03,0.26-0.05,0.39-0.08C792.224,244.037,792.315,245.037,792.395,246.026z"/>
				</g>
				<g>
					<path style="fill:#FFFFF0;" d="M770.285,202.137c0.53,0.89,1.06,1.77,1.58,2.66c-9.4,2.53-19.15,4.97-29.17,7.32
						c-0.97,0.23-1.95,0.45-2.93,0.68c-15.75,3.64-32.11,7.05-48.77,10.23c-0.97,0.19-1.94,0.38-2.92,0.56
						c-15.75,2.98-31.74,5.77-47.68,8.36c-0.98,0.16-1.97,0.31-2.95,0.47c-13.82,2.23-27.58,4.31-41.1,6.24h-0.01
						c-0.98,0.14-1.96,0.29-2.94,0.42h-0.01c-12.21,1.74-24.21,3.36-35.86,4.86c-2.44,0.32-4.87,0.63-7.27,0.93
						c-0.99,0.13-1.98,0.25-2.96,0.37c-17.65,2.22-34.38,4.16-49.66,5.84c-1,0.11-2,0.22-2.98,0.33
						c-12.99,1.41-24.89,2.63-35.37,3.67c-1.03,0.1-2.05,0.19-3.05,0.29c-13.77,1.34-24.89,2.33-32.56,2.98
						c-7.3,0.62-11.47,0.94-11.81,0.97l-0.23-2.99c0.34-0.03,4.39-0.34,11.49-0.939c7.57-0.65,18.62-1.63,32.34-2.96
						c1-0.09,2.02-0.19,3.05-0.29c10.51-1.03,22.47-2.26,35.55-3.68c0.98-0.11,1.98-0.21,2.98-0.33c11.4-1.24,23.6-2.64,36.4-4.19
						c4.37-0.53,8.82-1.08,13.33-1.64c0.98-0.13,1.97-0.25,2.96-0.38c13.94-1.76,28.43-3.69,43.23-5.79
						c0.98-0.14,1.97-0.28,2.95-0.42c13.53-1.94,27.3-4.02,41.13-6.24c0.98-0.16,1.96-0.32,2.95-0.48
						c15.95-2.6,31.95-5.38,47.71-8.37c0.97-0.18,1.95-0.37,2.92-0.56c16.67-3.19,33.05-6.6,48.79-10.25
						c0.98-0.22,1.96-0.45,2.94-0.67C751.945,206.876,761.275,204.546,770.285,202.137z"/>
				</g>
				<g>
					<path style="fill:#FFFFF0;" d="M742.135,160.896c0.66,0.84,1.31,1.69,1.96,2.54c-2.32,0.69-4.67,1.37-7.04,2.04
						c-0.97,0.27-1.94,0.55-2.92,0.82c-15.72,4.38-32.39,8.51-49.54,12.38c-0.97,0.22-1.94,0.44-2.91,0.66
						c-15.73,3.5-31.84,6.8-47.98,9.88c-0.98,0.19-1.96,0.37-2.93,0.56c-13.86,2.62-27.72,5.07-41.38,7.37
						c-0.98,0.17-1.96,0.33-2.94,0.49c-15.12,2.53-29.97,4.86-44.24,7c-0.99,0.14-1.98,0.29-2.96,0.439
						c-17.88,2.64-34.82,4.97-50.2,6.99c-1.01,0.12-2,0.25-2.99,0.38c-13.81,1.79-26.3,3.32-37.03,4.58
						c-1.04,0.12-2.07,0.24-3.08,0.36c-13.28,1.55-23.61,2.66-30.03,3.32c-4.59,0.48-7.18,0.73-7.44,0.76l-0.29-2.99
						c0.25-0.02,2.7-0.26,7.05-0.71c6.3-0.65,16.59-1.76,29.89-3.31c1.01-0.11,2.04-0.23,3.08-0.36
						c10.75-1.25,23.28-2.78,37.14-4.58c0.99-0.13,1.99-0.26,2.99-0.39c15.39-2.01,32.34-4.34,50.24-6.99
						c0.98-0.14,1.97-0.29,2.96-0.44c14.3-2.13,29.19-4.46,44.35-7c0.98-0.16,1.96-0.32,2.95-0.48c13.67-2.31,27.55-4.77,41.41-7.4
						c0.97-0.18,1.95-0.36,2.93-0.55c16.16-3.08,32.29-6.38,48.02-9.9c0.97-0.21,1.94-0.43,2.91-0.66
						c17.2-3.87,33.9-8.02,49.64-12.42c0.98-0.27,1.95-0.54,2.91-0.82C738.505,161.946,740.325,161.426,742.135,160.896z"/>
				</g>
				<g>
					<path style="fill:#FFFFF0;" d="M713.335,127.506c0.8,0.83,1.6,1.68,2.39,2.52c-11.1,2.65-23.74,5.41-38.14,8.22
						c-0.97,0.2-1.94,0.39-2.93,0.58c-14.51,2.8-30.76,5.66-48.96,8.54c-0.98,0.16-1.97,0.31-2.96,0.47
						c-13.08,2.05-27.15,4.11-42.29,6.17c-0.98,0.13-1.97,0.27-2.97,0.4c-11.72,1.58-24.08,3.16-37.09,4.73
						c-3.04,0.37-6.06,0.729-9.06,1.08c-1,0.12-2,0.23-3,0.35c-18.1,2.11-35.41,3.96-51.23,5.56c-1.01,0.1-2.02,0.2-3.02,0.29
						c-14.38,1.44-27.47,2.66-38.74,3.66c-1.06,0.09-2.1,0.19-3.12,0.28c-12.16,1.07-22.01,1.87-28.83,2.4
						c-6.69,0.53-10.46,0.8-10.62,0.81l-0.21-2.99c0.15-0.01,3.67-0.26,9.95-0.75c6.71-0.53,16.56-1.33,28.8-2.4
						c1.03-0.1,2.07-0.19,3.13-0.28c11.27-1,24.39-2.22,38.82-3.65c1-0.11,2-0.21,3.02-0.31c15.83-1.59,33.15-3.44,51.28-5.55
						c0.99-0.12,1.99-0.23,2.99-0.35c3.14-0.37,6.3-0.75,9.49-1.13c12.9-1.56,25.15-3.12,36.78-4.69c0.99-0.13,1.98-0.26,2.97-0.4
						c15.16-2.06,29.25-4.12,42.34-6.17h0.01c0.99-0.16,1.97-0.31,2.95-0.47c18.23-2.89,34.5-5.75,49.02-8.56
						c0.99-0.19,1.96-0.38,2.93-0.57C690.665,132.637,702.705,130.037,713.335,127.506z"/>
				</g>
				<g>
					<path style="fill:#FFFFF0;" d="M672.965,90.616c1.01,0.81,2,1.61,3,2.43c-2.24,0.55-4.54,1.1-6.89,1.65
						c-0.96,0.22-1.93,0.45-2.91,0.67c-14.6,3.35-31.15,6.65-49.65,9.91c-0.98,0.17-1.96,0.34-2.95,0.51
						c-13.33,2.32-27.64,4.62-42.93,6.89c-0.99,0.14-1.98,0.29-2.97,0.44c-9.56,1.4-19.51,2.8-29.82,4.18
						c-5.97,0.8-11.9,1.58-17.78,2.33c-1,0.13-2,0.25-3,0.38c-18.06,2.29-35.53,4.33-51.6,6.1c-1.02,0.11-2.03,0.23-3.03,0.33
						c-14.7,1.62-28.17,3-39.77,4.14c-1.06,0.11-2.11,0.21-3.14,0.311c-12.2,1.2-22.15,2.11-29.03,2.72
						c-6.7,0.59-10.5,0.91-10.67,0.92l-0.25-2.99c0.31-0.02,3.8-0.31,9.86-0.85c6.76-0.6,16.74-1.51,29.09-2.72
						c1.03-0.11,2.08-0.21,3.15-0.31c11.59-1.15,25.09-2.54,39.87-4.17c1-0.1,2.01-0.22,3.02-0.33c16.04-1.77,33.51-3.81,51.63-6.11
						c1-0.13,2-0.26,3.01-0.38c15.62-2,31.69-4.18,47.71-6.54c0.99-0.15,1.99-0.29,2.98-0.44c14.52-2.16,28.96-4.46,42.98-6.91
						c0.99-0.16,1.97-0.33,2.95-0.51c17.54-3.09,34.36-6.4,49.72-9.91c0.98-0.22,1.95-0.45,2.92-0.68c1.51-0.35,3.01-0.7,4.49-1.06
						C672.965,90.616,672.965,90.616,672.965,90.616z"/>
				</g>
				<g>
					<path style="fill:#FFFFF0;" d="M619.805,54.466c1.21,0.69,2.42,1.39,3.62,2.1c-5.48,1.78-11.26,3.53-17.34,5.25
						c-0.95,0.28-1.92,0.55-2.89,0.81c-12.96,3.62-27.24,7.12-42.84,10.52c-0.97,0.22-1.95,0.43-2.93,0.64
						c-14.93,3.22-31.04,6.34-48.32,9.36h-0.01c-0.99,0.18-1.97,0.35-2.97,0.52c-1.56,0.27-3.13,0.54-4.71,0.81
						c-16.12,2.74-31.9,5.16-46.66,7.27c-1.01,0.14-2.01,0.29-3.01,0.43c-14.94,2.11-28.78,3.89-40.81,5.34
						c-1.06,0.13-2.1,0.25-3.13,0.38c-12.53,1.49-22.9,2.62-30.23,3.38c-7.56,0.79-11.9,1.18-12.06,1.2l-0.27-2.99
						c0.31-0.03,4.25-0.39,11.05-1.1c7.22-0.75,17.67-1.88,30.42-3.41c1.02-0.12,2.06-0.25,3.12-0.38
						c12.02-1.46,25.91-3.25,40.96-5.38c1-0.14,2-0.28,3.01-0.43c16.17-2.31,33.59-5,51.4-8.09c0.99-0.17,1.98-0.34,2.97-0.52
						c16.08-2.81,32.44-5.94,48.44-9.39c0.98-0.21,1.95-0.42,2.93-0.64c14.8-3.24,29.27-6.75,42.9-10.54
						c0.97-0.27,1.93-0.54,2.88-0.82C610.275,57.387,615.115,55.946,619.805,54.466z"/>
				</g>
				<g>
					<path style="fill:#FFFFF0;" d="M569.265,29.957c-6.4,2.14-12.84,4.14-19.28,6.02c-0.96,0.28-1.92,0.56-2.88,0.83
						c-16.58,4.74-33.14,8.66-48.99,11.88c-0.99,0.21-1.98,0.4-2.96,0.6c-16.86,3.36-32.86,5.94-47.14,7.92
						c-1.48,0.2-2.95,0.4-4.41,0.6c-1.02,0.13-2.03,0.27-3.03,0.39c-16.02,2.08-30.79,3.56-43.54,4.6c-1.08,0.09-2.15,0.18-3.2,0.26
						c-14.76,1.16-26.56,1.73-34.12,2c-5.89,0.22-9.2,0.26-9.32,0.26l-0.03-3c0.21,0,2.91-0.04,7.7-0.2
						c7.23-0.26,19.2-0.82,34.47-2.03c1.05-0.08,2.13-0.16,3.21-0.25c12.76-1.05,27.62-2.53,43.83-4.63c1-0.13,2.01-0.26,3.02-0.4
						c16.19-2.14,33.64-4.91,51.6-8.46c0.98-0.19,1.97-0.39,2.95-0.59c16.17-3.26,32.73-7.17,49.12-11.84
						c0.96-0.27,1.92-0.55,2.88-0.83c5.29-1.53,10.55-3.15,15.78-4.86C566.375,28.796,567.825,29.366,569.265,29.957z"/>
				</g>
				<g>
					<path style="fill:#FFFFF0;" d="M460.495,2.546c2.32,0.25,4.62,0.53,6.92,0.83c-12.34,4.22-25.52,8.07-38.65,11.52
						c-0.97,0.25-1.94,0.51-2.91,0.76c-16.17,4.17-32.17,7.74-46.37,10.65c-1.05,0.21-2.09,0.43-3.12,0.64
						c-15.06,3.03-27.88,5.3-36.41,6.73c-6.86,1.15-10.95,1.76-11.18,1.79l-0.44-2.96c0.21-0.03,3.72-0.56,9.66-1.54
						c8.3-1.38,21.35-3.66,36.85-6.77c1.03-0.21,2.07-0.42,3.12-0.63c14.32-2.92,30.52-6.52,46.89-10.73
						c0.97-0.25,1.94-0.51,2.91-0.76C438.825,9.176,449.915,5.997,460.495,2.546z"/>
				</g>
				<g>
					<path style="fill:#FFFFF0;" d="M361.525,3.346c3.95,5.31,8.4,12.12,13.32,20.85c0.37,0.66,0.74,1.33,1.12,2.01
						c0.14,0.25,0.27,0.49,0.4,0.74c5.47,9.94,10.87,21.08,16.17,33.14c0.43,0.98,0.86,1.97,1.3,2.97
						c4.36,10.08,8.66,20.77,12.88,31.92c0.36,0.97,0.73,1.94,1.09,2.92c3.64,9.72,7.22,19.78,10.72,30.07
						c0.34,0.97,0.67,1.94,1,2.92c4.03,11.93,7.97,24.16,11.78,36.54c0.3,0.97,0.6,1.95,0.91,2.93c4.47,14.6,8.79,29.38,12.92,44.1
						c0.28,0.98,0.55,1.95,0.82,2.93c2.49,8.9,4.91,17.77,7.26,26.55c0.76,2.84,1.51,5.67,2.25,8.49c0.26,0.98,0.51,1.96,0.77,2.94
						c3.21,12.24,6.26,24.26,9.15,35.91c0.25,0.99,0.49,1.97,0.73,2.95c0.44,1.76,0.87,3.51,1.29,5.25
						c0.99,4.01,1.95,7.98,2.89,11.88l2.92-0.7c-0.9-3.73-1.79-7.42-2.69-11.06c-0.46-1.89-0.92-3.77-1.38-5.63
						c-0.24-0.98-0.48-1.96-0.73-2.94c-3.08-12.48-6.13-24.46-9.13-35.95c-0.26-0.99-0.51-1.97-0.77-2.94
						c-0.72-2.76-1.44-5.5-2.17-8.2c-2.46-9.3-4.91-18.26-7.31-26.91c-0.28-0.98-0.55-1.96-0.82-2.93
						c-4.4-15.71-8.69-30.36-12.88-44.02c-0.3-0.98-0.6-1.96-0.9-2.93c-4.03-13.09-7.96-25.26-11.77-36.57
						c-0.33-0.98-0.66-1.95-0.99-2.92c-3.69-10.83-7.27-20.86-10.74-30.14c-0.37-0.98-0.73-1.96-1.1-2.92
						c-4.45-11.78-8.72-22.34-12.8-31.8c-0.43-1-0.86-1.99-1.29-2.96c-5.83-13.31-11.26-24.36-16.26-33.53
						c-0.5-0.94-1.01-1.85-1.52-2.74c-4.72-8.47-9.05-15.24-12.97-20.64L361.525,3.346z"/>
				</g>
				<g>
					<path style="fill:#FFFFF0;" d="M505.985,308.156l-2.99,0.24c-0.2-2.49-0.43-5.03-0.69-7.6c-0.33-3.19-0.7-6.45-1.12-9.76
						c-0.13-0.99-0.26-1.98-0.39-2.98c-1.55-11.63-3.64-23.92-6.14-36.65c-0.19-0.98-0.39-1.96-0.59-2.95
						c-0.3-1.5-0.61-3.01-0.92-4.52c-2.12-10.29-4.5-20.83-7.08-31.49c-0.23-0.98-0.47-1.95-0.71-2.93
						c-3.47-14.26-7.28-28.72-11.28-43.1c-0.27-0.98-0.54-1.95-0.82-2.92c-3.5-12.49-7.13-24.91-10.82-37.06
						c-0.29-0.99-0.59-1.97-0.89-2.95c-3.26-10.69-6.55-21.17-9.8-31.31c-0.31-0.99-0.63-1.98-0.95-2.96
						c-3.48-10.8-6.91-21.2-10.22-31.02c-0.34-1-0.67-2-1-2.99c-4.98-14.71-9.64-28.08-13.72-39.55c-0.34-0.96-0.67-1.9-1-2.82
						c-1.65-4.61-3.19-8.88-4.6-12.79c1.07,0.01,2.14,0.03,3.21,0.06c1.33,3.69,2.77,7.69,4.3,11.97c0.33,0.93,0.66,1.87,1,2.82
						c4.11,11.57,8.82,25.06,13.83,39.91c0.33,0.99,0.67,1.99,1.01,3c3.3,9.81,6.73,20.19,10.2,30.98c0.31,0.98,0.63,1.97,0.95,2.96
						c3.26,10.17,6.55,20.68,9.81,31.41c0.3,0.98,0.6,1.97,0.9,2.95c3.68,12.16,7.31,24.58,10.81,37.08
						c0.27,0.98,0.55,1.96,0.82,2.94c3.99,14.35,7.78,28.78,11.25,43c0.24,0.98,0.47,1.96,0.71,2.94c2.6,10.79,5,21.46,7.15,31.87
						c0.29,1.4,0.57,2.8,0.84,4.19c0.21,0.99,0.4,1.97,0.59,2.95c2.51,12.74,4.59,25.05,6.15,36.69c0.13,1,0.26,1.99,0.38,2.98
						c0.44,3.45,0.83,6.85,1.16,10.17C505.575,303.366,505.795,305.787,505.985,308.156z"/>
				</g>
				<g>
					<path style="fill:#FFFFF0;" d="M556.445,311.046l-3-0.08c0.07-2.66,0.08-5.4,0.03-8.23c-0.09-5.45-0.39-11.2-0.88-17.21
						c-0.08-0.99-0.17-1.99-0.26-2.99c-1.05-11.63-2.79-24.17-5.04-37.3c-0.08-0.43-0.15-0.87-0.23-1.3
						c-0.09-0.55-0.19-1.09-0.29-1.64c-2.12-12.01-4.66-24.5-7.52-37.22c-0.22-0.979-0.44-1.96-0.67-2.939
						c-3.11-13.71-6.58-27.67-10.26-41.57c-0.25-0.98-0.51-1.96-0.77-2.93c-3.37-12.68-6.91-25.3-10.49-37.63
						c-0.29-0.99-0.58-1.97-0.87-2.96c-3.34-11.45-6.73-22.64-10.07-33.38c-0.31-1-0.62-1.99-0.92-2.97
						c-3.45-11.04-6.83-21.57-10.05-31.41c-0.32-0.99-0.64-1.97-0.96-2.94c-5.25-15.97-10.04-29.98-13.92-41.13
						c1.13,0.18,2.25,0.37,3.37,0.56c3.82,10.98,8.45,24.58,13.5,39.98c0.32,0.97,0.64,1.95,0.97,2.93
						c3.23,9.87,6.61,20.43,10.06,31.49c0.31,0.99,0.62,1.98,0.92,2.97h0.01c3.34,10.79,6.74,22.02,10.1,33.52
						c0.29,0.98,0.58,1.97,0.86,2.96c3.59,12.34,7.12,24.97,10.48,37.66c0.27,0.97,0.53,1.95,0.78,2.93
						c3.66,13.87,7.12,27.8,10.22,41.48c0.23,0.98,0.45,1.96,0.67,2.94c2.86,12.729,5.4,25.24,7.52,37.28
						c0.12,0.68,0.24,1.35,0.36,2.02c0.05,0.31,0.11,0.62,0.16,0.93c2.25,13.13,3.99,25.68,5.05,37.32c0.1,1,0.18,2,0.26,2.99
						c0.51,6.18,0.82,12.09,0.91,17.68C556.525,305.666,556.515,308.396,556.445,311.046z"/>
				</g>
				<g>
					<path style="fill:#FFFFF0;" d="M601.515,304.557c-0.04,3.68-0.17,7.23-0.38,10.64l-2.99-0.19c0.21-3.39,0.34-6.91,0.38-10.56
						c0.1-7.69-0.17-15.92-0.74-24.58c-0.07-0.99-0.14-1.979-0.21-2.99c-0.77-10.45-1.96-21.5-3.51-32.94
						c-0.21-1.61-0.44-3.23-0.67-4.86h-0.01c-0.13-0.979-0.27-1.96-0.42-2.95c-1.82-12.51-4.03-25.42-6.51-38.49
						c-0.18-0.98-0.37-1.96-0.56-2.94c-2.57-13.38-5.42-26.9-8.42-40.29c-0.22-0.98-0.44-1.96-0.66-2.94
						c-2.95-13.01-6.03-25.87-9.15-38.35c-0.25-1-0.5-2-0.75-2.99c-3.18-12.62-6.38-24.82-9.49-36.34c-0.27-1.01-0.54-2.01-0.81-3
						c-3.33-12.25-6.55-23.68-9.51-33.98c-0.29-0.98-0.56-1.94-0.84-2.89c-1.41-4.89-2.76-9.5-4.03-13.79
						c1.16,0.37,2.31,0.75,3.46,1.13c1.1,3.73,2.25,7.68,3.45,11.83c0.28,0.95,0.56,1.92,0.84,2.89
						c2.98,10.35,6.21,21.85,9.56,34.17c0.27,0.99,0.54,1.99,0.81,3c3.13,11.58,6.34,23.85,9.54,36.54
						c0.24,0.99,0.49,1.99,0.74,2.99c3.12,12.49,6.2,25.37,9.15,38.39c0.22,0.98,0.44,1.96,0.66,2.94
						c2.99,13.36,5.83,26.85,8.4,40.21c0.18,0.97,0.37,1.95,0.55,2.93c2.49,13.08,4.7,26.02,6.52,38.56
						c0.15,0.99,0.29,1.97,0.42,2.95h0.01c0.25,1.77,0.49,3.53,0.72,5.28c1.53,11.29,2.71,22.2,3.47,32.54c0.08,1,0.15,2,0.21,2.99
						C601.345,288.316,601.615,296.716,601.515,304.557z"/>
				</g>
				<g>
					<path style="fill:#FFFFF0;" d="M645.875,306.236c-0.02,1.63-0.05,3.24-0.1,4.82l-3-0.1c0.05-1.59,0.08-3.2,0.1-4.83
						c0.14-10.08-0.25-20.99-1.08-32.5c-0.07-0.99-0.14-1.99-0.22-3c-0.67-8.62-1.57-17.54-2.67-26.69
						c-0.45-3.8-0.94-7.65-1.46-11.52c-0.13-0.98-0.27-1.96-0.4-2.95c-1.79-13-3.91-26.32-6.27-39.69
						c-0.17-0.99-0.35-1.98-0.52-2.96c-2.33-13.05-4.87-26.12-7.52-38.98c-0.2-0.98-0.4-1.96-0.6-2.94h-0.01
						c-2.77-13.39-5.66-26.52-8.56-39.11c-0.23-1.01-0.46-2.01-0.69-3.01c-3.29-14.24-6.57-27.76-9.68-40.15
						c-0.25-1.01-0.5-2.02-0.75-3.02c-1.47-5.84-2.9-11.41-4.27-16.67c1.19,0.58,2.38,1.18,3.56,1.78
						c1.16,4.48,2.36,9.18,3.59,14.07c0.25,1,0.51,2.01,0.76,3.03c3.12,12.48,6.43,26.1,9.74,40.45c0.24,1,0.47,2,0.69,3.01
						c2.9,12.61,5.8,25.75,8.57,39.15c0.2,0.98,0.41,1.96,0.61,2.94c2.64,12.83,5.17,25.88,7.49,38.9c0.18,0.98,0.35,1.97,0.52,2.95
						c2.37,13.4,4.5,26.74,6.29,39.77c0.14,0.99,0.27,1.98,0.4,2.96c0.54,4.03,1.05,8.03,1.53,11.99
						c1.07,8.98,1.95,17.76,2.61,26.24c0.08,1.01,0.16,2,0.23,3C645.615,284.887,646.025,295.986,645.875,306.236z"/>
				</g>
				<g>
					<path style="fill:#FFFFF0;" d="M695.565,308.116c-0.32,4.32-0.78,8.33-1.39,12l-2.96-0.49c0.59-3.56,1.04-7.45,1.35-11.62
						c0.9-12.06,0.68-26.52-0.37-42.47c-0.06-1-0.13-2-0.21-3.01c-0.42-6.01-0.97-12.22-1.61-18.59c-0.67-6.63-1.44-13.43-2.3-20.35
						c-0.12-0.99-0.25-1.98-0.37-2.97c-1.73-13.5-3.78-27.39-6.02-41.28c-0.16-0.99-0.32-1.98-0.48-2.97
						c-2.06-12.64-4.28-25.25-6.55-37.54c-0.19-0.99-0.37-1.97-0.55-2.96c-2.64-14.11-5.33-27.76-7.94-40.5
						c-0.21-1.01-0.41-2.01-0.62-3.01c-0.63-3.04-1.25-6.02-1.86-8.94c1.22,0.92,2.43,1.84,3.64,2.78c0.38,1.8,0.76,3.63,1.14,5.48
						c0.2,1,0.41,2.01,0.61,3.02c2.62,12.76,5.32,26.45,7.96,40.6c0.18,0.98,0.36,1.96,0.55,2.95c2.26,12.26,4.47,24.84,6.53,37.46
						c0.16,0.99,0.32,1.98,0.48,2.97c2.25,13.92,4.3,27.84,6.03,41.38c0.13,1,0.25,1.99,0.37,2.97c0.89,7.11,1.68,14.1,2.36,20.91
						c0.63,6.19,1.16,12.23,1.58,18.09c0.07,1.01,0.14,2.01,0.2,3C696.225,281.186,696.465,295.856,695.565,308.116z"/>
				</g>
				<g>
					<path style="fill:#FFFFF0;" d="M750.085,324.227l-2.95-0.53c0.55-3.04,0.77-7.71,0.72-13.6c-0.1-13.36-1.54-32.98-3.54-54.1
						c-0.1-0.99-0.19-1.99-0.29-2.99c-0.29-3-0.59-6.03-0.9-9.07c-1.05-10.42-2.21-20.98-3.36-31.14c-0.12-1-0.24-2-0.35-2.99
						c-1.34-11.64-2.67-22.65-3.86-32.22c-0.47-3.78-0.94-7.55-1.42-11.29c-0.13-1-0.25-2.01-0.38-3.01
						c-0.66-5.15-1.32-10.24-1.98-15.25c1.21,1.44,2.41,2.89,3.59,4.35c0.45,3.41,0.88,6.78,1.3,10.08
						c0.14,1.01,0.26,2.02,0.39,3.01c0.44,3.42,0.86,6.75,1.26,9.97c1.24,9.98,2.64,21.52,4.04,33.69
						c0.12,0.99,0.23,1.979,0.34,2.979c1.19,10.39,2.36,21.18,3.44,31.82c0.29,2.84,0.57,5.68,0.84,8.49c0.09,1,0.19,2.01,0.29,3
						c2.02,21.35,3.47,41.2,3.56,54.79C750.875,316.267,750.655,321.076,750.085,324.227z"/>
				</g>
				<g>
					<path style="fill:#FFFFF0;" d="M796.165,311.926c-0.1,16.3-1.94,18.26-2.82,19.2l-2.19-2.05c0.83-0.89,1.96-4.46,2.02-17.26
						c0.06-11.93-0.81-31.88-3.72-65.14c-0.09-0.9-0.17-1.82-0.25-2.74c-0.01-0.09-0.01-0.18-0.02-0.27
						c-0.22-2.44-0.45-4.93-0.68-7.51c1.11,2.3,2.19,4.62,3.24,6.95c0.13-0.03,0.26-0.05,0.39-0.08c0.09,1.01,0.18,2.01,0.26,3v0.01
						C795.355,279.656,796.245,299.787,796.165,311.926z"/>
				</g>
			</g>
			<path style="fill:#FFFFFF;" d="M824.855,357.977c-97.23-22.17-406.29-29.24-406.29-29.24l-202.52,161.61
				c2.7-9.17-3.15-132.2-9.27-246.41c-4.16-77.62-8.45-151.15-10.28-182.12v-0.01l0.25-0.15l24.56-14.04l0.1-0.06l0.76,23.19
				l0.1,3.26l0.96,29.42v0.01l0.24,7.42l0.01,0.22l0.11,3.271l1.43,44.14l0.11,3.38l1.71,52.48l0.11,3.28l0.86,26.31l0.3,9.49
				l0.12,3.41l0.44,13.81l0.41,12.47l0.88,26.89l0.1,3.16l1.62,49.68l0.1,3.14l2.68,82.42l15.6-12.92l3.34-2.77l32.78-27.15
				l3.49-2.9l7.28-6.03l2.39-1.97l24.96-20.68l0.62-0.52l1.7-1.4l1.72-1.43l28.36-23.49l2.31-1.91l0.52-0.43l3.56-2.96l21.75-18.01
				l2.32-1.92l20.16-16.7c-0.75-3.7-1.5-7.36-2.26-10.97c-0.38-1.82-0.76-3.62-1.15-5.42c-3.37-15.82-6.82-30.77-10.33-44.89
				c-2.09-8.44-4.2-16.58-6.32-24.44c-0.49-1.79-0.97-3.56-1.46-5.32c-0.08-0.3-0.16-0.6-0.25-0.9c-0.62-2.26-1.25-4.49-1.87-6.7
				c-6.86-24.2-13.83-45.55-20.75-64.36c-0.58-1.57-1.16-3.11-1.73-4.64c-0.18-0.49-0.37-0.979-0.55-1.46
				c-0.75-1.97-1.49-3.92-2.24-5.83c-6.58-16.95-13.09-31.65-19.38-44.38c-0.77-1.58-1.55-3.12-2.32-4.64
				c-2.94-5.8-5.83-11.16-8.66-16.12c-0.99-1.75-1.97-3.44-2.94-5.08h-0.01c-4.56-7.71-8.92-14.36-13-20.08
				c-0.75-1.04-1.48-2.04-2.2-3.02c-6.19-8.37-11.7-14.57-16.27-19.11c9.07-2.75,18.28-5.2,27.6-7.34
				c5.89,6.4,11.47,13.25,16.77,20.45c0.66,0.9,1.32,1.8,1.96,2.71c6.47,9.01,12.49,18.54,18.11,28.44c0.55,0.97,1.1,1.95,1.65,2.94
				c5.99,10.78,11.51,21.96,16.58,33.33c0.43,0.96,0.86,1.92,1.28,2.89c4.27,9.72,8.21,19.57,11.86,29.41
				c0.36,0.97,0.71,1.94,1.06,2.92c4.46,12.19,8.44,24.35,12.01,36.22c0.3,0.98,0.59,1.96,0.88,2.93
				c4.66,15.75,8.58,30.95,11.86,45.01c0.23,0.99,0.46,1.97,0.68,2.94c1.88,8.2,3.54,15.98,4.99,23.23
				c0.8,3.99,1.54,7.81,2.21,11.45c0.19,1,0.37,1.99,0.55,2.96c3.09,16.91,4.86,29.53,5.65,35.63c0.17,1.29,0.29,2.29,0.37,2.98
				c0.09,0.73,0.13,1.1,0.13,1.1l37.58,1.42l3.12,0.12l31.78,1.2l3.02,0.12l48.15,1.82l3,0.12l42.05,1.59l2.99,0.11l41.36,1.57
				l3,0.11l46.69,1.77l3,0.11l52.29,1.98l2.97,0.12l42.35,1.6l2.99,0.11l19.94,0.76l0.01,0.04L824.855,357.977z"/>
		</g>
	</g>
</g>
<g id="Livello_1">
</g>
</svg>
