<?xml version="1.0" encoding="iso-8859-1"?>
<!-- Generator: Adobe Illustrator 19.2.1, SVG Export Plug-In . SVG Version: 6.00 Build 0)  -->
<!DOCTYPE svg PUBLIC "-//W3C//DTD SVG 1.1//EN" "http://www.w3.org/Graphics/SVG/1.1/DTD/svg11.dtd">
<svg version="1.1" xmlns="http://www.w3.org/2000/svg" xmlns:xlink="http://www.w3.org/1999/xlink" x="0px" y="0px"
	 viewBox="0 0 828.669 828.669" style="enable-background:new 0 0 828.669 828.669;" xml:space="preserve">
<g id="Kick">
	<g>
		<g>
			<defs>
				
					<ellipse id="SVGID_1_" transform="matrix(0.9999 -0.0129 0.0129 0.9999 -5.2924 5.3609)" cx="414.335" cy="414.335" rx="414.334" ry="414.334"/>
			</defs>
			<clipPath id="SVGID_2_">
				<use xlink:href="#SVGID_1_"  style="overflow:visible;"/>
			</clipPath>
			<g style="clip-path:url(#SVGID_2_);">
				<defs>
					
						<ellipse id="SVGID_3_" transform="matrix(0.9999 -0.0129 0.0129 0.9999 -5.2924 5.3609)" cx="414.335" cy="414.335" rx="414.334" ry="414.334"/>
				</defs>
				<clipPath id="SVGID_4_">
					<use xlink:href="#SVGID_3_"  style="overflow:visible;"/>
				</clipPath>
				<g style="clip-path:url(#SVGID_4_);">
					
						<ellipse transform="matrix(0.9999 -0.0129 0.0129 0.9999 -5.2924 5.3609)" style="fill:#ACBF65;" cx="414.335" cy="414.335" rx="414.334" ry="414.334"/>
				</g>
			</g>
		</g>
		
			<ellipse transform="matrix(0.2418 -0.9703 0.9703 0.2418 -411.478 850.4326)" style="opacity:0.2;fill:#1D1D1B;" cx="338.441" cy="688.516" rx="37.754" ry="238.124"/>
		<g>
			<circle style="fill:#FFFFFF;" cx="538.517" cy="591.729" r="172.738"/>
			<path style="fill:#FFFFFF;" d="M365.775,591.727c0,95.405,77.343,172.74,172.74,172.74c51.612,0,97.931-22.634,129.584-58.51
				c19.926-22.584,34.038-50.419,40.001-81.169v-0.008c2.07-10.7,3.155-21.748,3.155-33.052c0-20.216-3.478-39.628-9.855-57.657
				c-8.505-24.017-22.17-45.591-39.653-63.388c-31.346-31.901-74.974-51.686-123.232-51.686c-14.162,0-27.918,1.706-41.094,4.919
				c-15.876,3.867-30.891,9.938-44.705,17.864c-19.296,11.064-36.257,25.748-49.955,43.123
				c-19.503,24.746-32.382,54.957-35.959,87.96C366.123,579.056,365.775,585.35,365.775,591.727z"/>
			<polygon style="fill:#1D1D1B;" points="478.478,622.137 399.95,621.853 399.95,682.355 462.869,730.208 518.228,690.457 			"/>
			<polygon style="fill:#1D1D1B;" points="549.738,466.719 489.084,517.627 518.757,591.043 597.75,585.509 616.897,508.673 			"/>
			<path style="fill:#1D1D1B;" d="M366.802,572.861l40.465-2.841l17.748-71.223l-22.253-13.897
				C383.257,509.647,370.379,539.858,366.802,572.861z"/>
			<path style="fill:#1D1D1B;" d="M641.208,690.461l26.891,15.495c19.926-22.584,34.038-50.419,40.001-81.169v-0.008l-5.69-20.994
				l-50.021,8.414L641.208,690.461z"/>
			<path style="fill:#1D1D1B;" d="M452.716,441.778l25.665,8.34l19.04-26.203C481.545,427.782,466.53,433.852,452.716,441.778z"/>
			<path style="fill:#1D1D1B;" d="M661.747,470.681v50.502l39.653,12.886C692.894,510.052,679.229,488.479,661.747,470.681z"/>
		</g>
		<g>
			<path style="fill:#FFE2C5;" d="M251.334,373.742c30.226,6.667,30.108-112,30.108-112l2.507-241.74
				c-0.03,0.012-0.06,0.025-0.09,0.037c-2.21,0.875-4.475,1.597-6.769,2.238c-45.333,15.904-87.029,39.458-123.566,69.095
				c3.51,66.322-5.082,200.37-5.082,200.37s-0.667,20,22.259,50.667C193.625,373.075,221.108,367.075,251.334,373.742z"/>
			<path style="fill:#FDFBFD;" d="M230.817,156.031c-25.642,3.378-51.234,6.844-76.888,9.951
				c-1.371,61.535-5.488,125.759-5.488,125.759s-0.667,20,22.259,50.667c22.925,30.667,50.408,24.667,80.634,31.333
				c30.226,6.667,30.108-112,30.108-112l0.872-111.206C267.495,152.473,245.617,154.081,230.817,156.031z"/>
			<polygon style="fill:#D94862;" points="127.108,406.409 123.775,445.075 151.108,455.742 159.108,427.075 			"/>
			<polygon style="fill:#D94862;" points="177.775,438.409 170.7,475.742 204.441,487.742 209.108,455.742 			"/>
			<polygon style="fill:#D94862;" points="299.108,511.075 288.441,545.075 313.775,556.409 326.441,527.075 			"/>
			<polygon style="fill:#D94862;" points="335.775,531.075 326.441,565.075 357.775,577.075 365.775,545.075 			"/>
			<path style="fill:#52A3D9;" d="M282.858,251.402c0,0,30.648,25.499,24.649,46.498c0,0,47.601,67.842,72.935,80.509
				c25.333,12.667,100,51.333,127.333,134c27.333,82.667-45.333,82-86.667,71.333c-41.333-10.667-129.333-70.667-129.333-70.667
				s-78.667-44-100-62c0,0-72.667-24.667-92-74.667s28.667-91.681,39.333-101.174c10.667-9.493,10.667-9.493,10.667-9.493
				s16,70.667,54,74c38,3.333,77.749-15.144,77.082-60.477l0.585-17.523L282.858,251.402z"/>
			<path style="fill:#396A95;" d="M241.194,349.215c0,0-16.086-28.806,7.914-39.473c24-10.667,35.251,10.533,35.251,10.533
				L241.194,349.215z"/>
			<path style="fill:#FDFBFD;" d="M180.441,370.409c0,0,53.333,14,61.333,10c0,0,82,126,94,139.333c0,0-108-73.333-128.667-89.333
				S154.441,392.409,180.441,370.409z"/>
			<path style="fill:#396A95;" d="M374.441,483.742c-1.892-0.647-114.452-118.188-124-125.333c-19.475-14.574-4-19.107,7.333-28.554
				s14-25.453,30.667-5.453c16.667,20,103.333,138.673,103.333,138.673S399.775,492.409,374.441,483.742z"/>
			<path style="fill:none;stroke:#01678D;stroke-width:5;stroke-linecap:round;stroke-miterlimit:10;" d="M411.775,463.075
				c-2-2-73.333,0-73.333,0"/>
			<path style="fill:none;stroke:#01678D;stroke-width:5;stroke-linecap:round;stroke-miterlimit:10;" d="M313.108,431.075
				c2,0,75.333,3.333,75.333,3.333"/>
			
				<line style="fill:none;stroke:#01678D;stroke-width:5;stroke-linecap:round;stroke-miterlimit:10;" x1="371.108" y1="398.409" x2="335.775" y2="459.742"/>
			
				<line style="fill:none;stroke:#01678D;stroke-width:5;stroke-linecap:round;stroke-miterlimit:10;" x1="307.441" y1="429.075" x2="331.108" y2="365.075"/>
			
				<line style="fill:none;stroke:#01678D;stroke-width:5;stroke-linecap:round;stroke-miterlimit:10;" x1="269.775" y1="387.075" x2="353.441" y2="404.873"/>
			
				<line style="fill:none;stroke:#01678D;stroke-width:5;stroke-linecap:round;stroke-miterlimit:10;" x1="293.108" y1="324.402" x2="269.775" y2="381.742"/>
			
				<line style="fill:none;stroke:#01678D;stroke-width:5;stroke-linecap:round;stroke-miterlimit:10;" x1="246.441" y1="353.742" x2="319.275" y2="358.409"/>
			<path style="fill:none;stroke:#01678D;stroke-width:5;stroke-linecap:round;stroke-miterlimit:10;" d="M371.108,497.075
				c2-2.667,28-62.667,28-62.667"/>
		</g>
	</g>
</g>
<g id="Livello_1">
</g>
</svg>
