<?xml version="1.0" encoding="iso-8859-1"?>
<!-- Generator: Adobe Illustrator 19.2.1, SVG Export Plug-In . SVG Version: 6.00 Build 0)  -->
<!DOCTYPE svg PUBLIC "-//W3C//DTD SVG 1.1//EN" "http://www.w3.org/Graphics/SVG/1.1/DTD/svg11.dtd">
<svg version="1.1" xmlns="http://www.w3.org/2000/svg" xmlns:xlink="http://www.w3.org/1999/xlink" x="0px" y="0px"
	 viewBox="0 0 828.659 828.67" style="enable-background:new 0 0 828.659 828.67;" xml:space="preserve">
<g id="Livello_10">
	<g>
		<g>
			<g>
				<g>
					<path style="fill:#ACBF65;" d="M419.654,828.635c-50.75,0.65-99.49-7.85-144.64-23.97c-24.65-8.81-48.23-19.89-70.49-32.99
						c-4.49-2.64-8.93-5.36-13.31-8.18c-39.8-25.46-74.96-57.57-103.93-94.76l-0.01-0.01c-5.34-6.86-10.47-13.88-15.38-21.08
						c-7.2-10.53-13.92-21.41-20.13-32.62c-11.01-19.84-20.44-40.7-28.11-62.39c-12.31-34.78-20.12-71.72-22.7-110.12
						c-0.51-7.56-0.82-15.19-0.92-22.86c-0.1-8,0.02-15.94,0.37-23.83c0.06-1.52,0.13-3.04,0.22-4.55
						c1.07-19.58,3.51-38.82,7.22-57.6c14.54-73.71,48.66-140.48,96.79-194.59c74.69-84,183.12-137.49,304.37-139.05
						c192.63-2.48,356.24,126.9,404.92,304.4v0.01c6.57,23.96,11.05,48.81,13.21,74.32c0.86,9.98,1.36,20.06,1.49,30.24
						C831.574,637.815,648.464,825.695,419.654,828.635z"/>
				</g>
			</g>
		</g>
		<g>
			<path style="fill:#FFE2C5;" d="M375.211,275.113c5.207-0.888,10.413-1.776,15.62-2.663c4.828-0.823,9.909-1.76,13.649-4.924
				c4.2-3.553,5.876-9.198,7.178-14.543c2.435-9.997,4.29-20.134,5.554-30.345c0.33-2.669,0.653-5.442,2.063-7.733
				c1.409-2.291,4.257-3.944,6.805-3.082c1.239,0.419,2.225,1.351,3.168,2.257c6.596,6.332,13.193,12.664,19.789,18.996
				c4.027,3.866,8.418,9.166,6.422,14.38c-1.593,4.16-6.836,5.921-11.204,5.048s-8.05-3.704-11.556-6.452
				c36.399-0.911,27.637,26.343,26.457,41.801c-19.244,0.279-62.768,8.462-80.778,15.249c2.066-8.912,2.477-18.206,1.205-27.266
				L375.211,275.113z"/>
			<path style="fill:#2D2D2D;" d="M269.974,729.395c-5.13,6.2-10.92,11.79-17.24,16.7c-6.33,4.9-13.19,9.11-20.47,12.53
				l-27.74,13.05c-45.29-26.63-85.08-61.65-117.24-102.94l-0.01-0.01l-9.56-19.57l-6.15-12.59l97.8-42.13l2.61,3.5L269.974,729.395z
				"/>
			<path style="fill:#FFEC96;" d="M381.984,264.805v49.07c0,0-207.35,70.25-212.26,76.23c-4.91,5.98-28.22,121.31,4.91,204.74
				c0,0-0.9,1.14-2.66,3.09c-8.91,9.88-39.79,40.66-86.91,50.9c-2.47,0.54-4.92,0.63-7.35,0.32c-1.96-0.24-3.9-0.75-5.82-1.51
				c-7.2-10.53-13.92-21.41-20.13-32.62c-11.01-19.84-20.44-40.7-28.11-62.39c-12.31-34.78-20.12-71.72-22.7-110.12
				c-0.51-7.56-0.82-15.19-0.92-22.86c-0.1-8,0.02-15.94,0.37-23.83l17.55-6.82l42.23-16.39l4.7-1.83l20.18-7.83
				C85.064,362.955,335.364,284.435,381.984,264.805z"/>
			<path style="fill:#F1D870;" d="M75.244,453.755l-38.03-28.22l-28.22,28.22c0,0-3.73-4.59-8.04-11.24
				c-0.51-7.56-0.82-15.19-0.92-22.86c-0.1-8,0.02-15.94,0.37-23.83c0,0,0,0,0.22-4.55c0.292-6.05,10.2-7.15,16.11-10.13
				c12.67-6.4,27.62-10.75,43.45-11.44c0,0,1.86,0.27,4.7,1.08C78.744,374.745,115.964,391.655,75.244,453.755z"/>
			<path style="fill:#FFE2C5;" d="M60.184,296.308v91.131c0,0-34.098,17.83-40.751,5.943s-3.327-90.141,0-90.141
				S60.184,296.308,60.184,296.308z"/>
			<path style="fill:#FFE2C5;" d="M462.639,257.01c-1.266-0.777-2.812-1.204-4.258-0.861c-1.446,0.343-2.72,1.578-2.824,3.061
				c-0.179,2.568,2.765,4.107,5.25,4.779c11.845,3.201,24.725,2.439,36.11-2.137c2.783-1.119,5.531-2.495,7.652-4.615
				c1.456-1.455,2.628-3.595,1.89-5.517c-0.581-1.514-2.15-2.38-3.634-3.032c-13.119-5.758-28.891-4.276-41.359,2.782
				c-2.892,1.637-6.005,4.806-4.522,7.78L462.639,257.01z"/>
			<path style="fill:#FFE2C5;" d="M500.478,278.132c-11.113,2.786-22.61,4.038-34.062,3.71c-2.309-0.066-4.664-0.206-6.81-1.059
				c-2.146-0.853-4.082-2.542-4.663-4.778c-0.706-2.715,0.724-5.589,2.725-7.555c4.675-4.593,11.792-5.343,18.327-5.84
				c3.339-0.254,6.677-0.508,10.016-0.762c3.74-0.285,7.563-0.562,11.189,0.397c3.626,0.959,7.083,3.402,8.223,6.975
				c0.183,0.574,0.3,1.215,0.052,1.764c-0.179,0.397-0.526,0.69-0.867,0.961c-1.81,1.442-3.778,2.687-5.856,3.705L500.478,278.132z"
				/>
			<path style="fill:#FFE2C5;" d="M457.658,284.311c-2.479-0.714-5.309-0.043-7.205,1.706c-1.896,1.75-2.79,4.517-2.277,7.045
				c12.132,3.827,25.308,4.282,37.676,1.301c2.922-0.704,5.928-1.671,8.041-3.809c2.113-2.137,2.999-5.762,1.233-8.194
				c-1.597-2.198-4.631-2.688-7.343-2.844c-10.965-0.632-22.068,1.257-32.207,5.48L457.658,284.311z"/>
			<path style="fill:#A77334;" d="M543.941,104.07c-3.681,0.613-168.73,258.886-168.73,258.886l6.773,6.748l166.251-258.886
				L543.941,104.07z"/>
			<path style="fill:#FFA700;" d="M776.324,311.365c-2.11,3.69-5.23,8.28-9.12,13.53c-6.51,8.78-15.19,19.43-24.95,30.97
				c-4.02,4.75-8.23,9.66-12.54,14.64c-11.75,13.57-24.29,27.73-36.08,41.06c-3.16,3.57-6.26,7.07-9.28,10.5
				c-15.63,17.71-29.05,33.11-36.18,42.47c-0.29,0.38-0.57,0.76-0.84,1.12c-8.83-6.61-19.86-24.11-31.73-46.67
				c-5.03-9.54-10.2-19.99-15.42-30.9c-2.87-6-5.75-12.14-8.63-18.34c-7.11-15.29-14.2-30.98-21.02-45.98
				c-6.6-14.52-12.95-28.39-18.82-40.62c-1.14-2.37-2.26-4.69-3.36-6.93c-7.68-15.63-14.39-27.89-19.57-34.34
				c-5.04-6.27-9.93-12.67-15.52-18.45c-0.17-0.19-0.35-0.38-0.53-0.56c-2.74-2.79-5.64-5.42-8.67-7.9
				c-5.47-4.5-11.34-8.51-17.41-12.17c4.68-9.08,9.57-18.04,14.68-26.88c13.3-23.03,28.06-45.23,44.16-66.4l-1.15,1.66
				c5.92,7.16,12.34,13.87,18.83,20.52c1.08,1.1,2.16,2.21,3.24,3.31c10.53,10.73,21.09,21.49,32.36,31.41
				c5.04,4.43,10.21,8.69,15.6,12.7c0.08,0.06,0.16,0.12,0.24,0.18c10.24,7.61,21.18,14.28,31.29,22.07
				c0.84,0.65,1.68,1.31,2.51,1.98c3.24,2.61,15.64,12.26,31.54,24.84l13.23,10.5c15.57,12.42,32.75,26.31,47.44,38.68
				c0.13,0.11,0.25,0.22,0.38,0.32C759.844,293.575,774.514,306.915,776.324,311.365z"/>
			<path style="fill:#FFE2C5;" d="M460.955,236.84c14.497-6.017,29.729-10.261,45.249-12.609c1.455-0.22,3.003-0.412,4.348,0.186
				c2.288,1.018,3.09,4.058,2.358,6.453s-2.596,4.257-4.478,5.91c-11.208,9.849-26.704,16.156-41.163,12.475
				c-2.059-0.524-4.121-1.272-5.725-2.666c-1.603-1.394-2.678-3.545-2.32-5.639c0.66-3.863,5.345-5.42,9.25-5.756L460.955,236.84z"
				/>
			<path style="fill:#FFE2C5;" d="M452.977,239.138c-1.939-0.818-3.988-0.524-5.566,0.54c-1.787-1.41-4.176-1.967-6.306-0.594
				c-2.46,1.586-3.737,5.061-2.018,7.699c1.883,2.89,4.305,4.939,7.826,5.412c3.651,0.491,7.286-1.241,8.9-4.647
				C457.328,244.35,456.453,240.604,452.977,239.138z"/>
			
				<rect x="551.176" y="224.746" transform="matrix(-0.0043 -1 1 -0.0043 328.8964 823.0436)" style="fill:#FBE910;" width="46.063" height="46.063"/>
			
				<rect x="598.504" y="273.89" transform="matrix(-0.0043 -1 1 -0.0043 327.2842 919.726)" style="fill:#FBE910;" width="46.063" height="46.063"/>
			<polygon style="fill:#FBE910;" points="513.264,223.425 550.164,223.275 549.964,177.205 503.904,177.405 504.064,214.965 			"/>
			<path style="fill:#FBE910;" d="M729.714,370.505c-11.75,13.57-24.29,27.73-36.08,41.06l-0.18-40.9L729.714,370.505z"/>
			
				<rect x="646.377" y="323.127" transform="matrix(-0.0043 -1 1 -0.0043 326.1267 1017.0472)" style="fill:#FBE910;" width="46.063" height="46.063"/>
			<path style="fill:#FBE910;" d="M599.944,225.245v-0.61l-0.2-45.46l14.63-0.06c0.08,0.06,0.16,0.12,0.24,0.18
				c10.24,7.61,21.18,14.28,31.29,22.07l0.1,23.68L599.944,225.245z"/>
			<polygon style="fill:#FBE910;" points="693.184,238.685 693.334,274.185 647.274,274.385 647.074,228.325 679.954,228.185 			"/>
			<path style="fill:#FBE910;" d="M552.764,177.805v-0.61l-0.2-45.46l10.61-0.04c1.08,1.1,2.16,2.21,3.24,3.31
				c10.53,10.73,21.09,21.49,32.36,31.41l0.05,11.19L552.764,177.805z"/>
			<path style="fill:#FBE910;" d="M767.204,324.895c-6.51,8.78-15.19,19.43-24.95,30.97l-0.13-30.87L767.204,324.895z"/>
			
				<rect x="695.044" y="277.46" transform="matrix(-0.0043 -1 1 -0.0043 420.6685 1019.8506)" style="fill:#FBE910;" width="46.063" height="46.063"/>
			<path style="fill:#FBE910;" d="M599.054,369.715l-7.5,0.03c-7.11-15.29-14.2-30.98-21.02-45.98l28.32-0.12L599.054,369.715z"/>
			<path style="fill:#FBE910;" d="M646.384,418.855l-30.78,0.13c-5.03-9.54-10.2-19.99-15.42-30.9l-0.06-15.1l46.06-0.19
				L646.384,418.855z"/>
			<path style="fill:#FBE910;" d="M551.714,283.145c-1.14-2.37-2.26-4.69-3.36-6.93l3.33-0.01L551.714,283.145z"/>
			<path style="fill:#FBE910;" d="M684.354,422.065c-15.63,17.71-29.05,33.11-36.18,42.47l-0.18-42.31L684.354,422.065z"/>
			<path style="fill:#FFE2C5;" d="M275.014,804.665c-24.65-8.81-48.23-19.89-70.49-32.99c-4.49-2.64-8.93-5.36-13.31-8.18
				l-10.36-20.36h51L275.014,804.665z"/>
			<path style="opacity:0.5;fill:#05091F;" d="M15.592,331.612v15.277c0,0,7.259,8.723,17.259,7.39s28.667-12.696,28-35.333
				C60.184,296.308,15.592,331.612,15.592,331.612z"/>
			<path style="fill:#FFE2C5;" d="M53.844,331.955c-5.23,5.8-11.84,11.9-20.69,12.41c-7.53,0.44-14.36-3.35-20.21-7.21
				c-1.72-1.14-3.43-2.3-5.1-3.48c14.54-73.71,27.168-114.238,75.298-168.348C57.358,234.52,103.134,277.255,53.844,331.955z"/>
			<path style="fill:none;stroke:#DBA470;stroke-width:3;stroke-miterlimit:10;" d="M36.944,243.055c2.44,12.1,5.36,24.1,8.75,35.96
				c-5.92,0.99-11.85,1.97-17.78,2.95"/>
			<path style="fill:none;stroke:#DBA470;stroke-width:3;stroke-miterlimit:10;" d="M15.344,302.225
				c12.71-0.75,25.44-1.09,38.18-1.01"/>
		</g>
	</g>
</g>
<g id="Livello_1">
</g>
</svg>
