<?xml version="1.0" encoding="iso-8859-1"?>
<!-- Generator: Adobe Illustrator 19.2.1, SVG Export Plug-In . SVG Version: 6.00 Build 0)  -->
<!DOCTYPE svg PUBLIC "-//W3C//DTD SVG 1.1//EN" "http://www.w3.org/Graphics/SVG/1.1/DTD/svg11.dtd">
<svg version="1.1" xmlns="http://www.w3.org/2000/svg" xmlns:xlink="http://www.w3.org/1999/xlink" x="0px" y="0px"
	 viewBox="0 0 828.669 828.669" style="enable-background:new 0 0 828.669 828.669;" xml:space="preserve">
<g id="Penalty_Kick">
	<g>
		<g>
			<g>
				
					<ellipse transform="matrix(0.9999 -0.0129 0.0129 0.9999 -5.2924 5.3609)" style="fill:#ACBF65;" cx="414.335" cy="414.335" rx="414.334" ry="414.334"/>
			</g>
		</g>
		<g>
			<circle style="fill:#FFFFFF;" cx="631.198" cy="419.436" r="47.176"/>
			<path style="fill:#FFFFFF;" d="M584.022,419.436c0,26.056,21.123,47.176,47.176,47.176c14.095,0,26.745-6.181,35.39-15.979
				c5.442-6.168,9.296-13.77,10.924-22.168v-0.002c0.565-2.922,0.862-5.939,0.862-9.027c0-5.521-0.95-10.823-2.692-15.746
				c-2.323-6.559-6.055-12.451-10.829-17.312c-8.561-8.712-20.476-14.116-33.655-14.116c-3.868,0-7.624,0.466-11.223,1.343
				c-4.336,1.056-8.436,2.714-12.209,4.879c-5.27,3.022-9.902,7.032-13.643,11.777c-5.326,6.758-8.844,15.009-9.821,24.022
				C584.117,415.975,584.022,417.694,584.022,419.436z"/>
			<polygon style="fill:#1D1D1B;" points="614.802,427.741 593.355,427.663 593.355,444.186 610.539,457.255 625.657,446.399 			"/>
			<polygon style="fill:#1D1D1B;" points="634.263,385.295 617.698,399.199 625.802,419.249 647.375,417.738 652.604,396.753 			"/>
			<path style="fill:#1D1D1B;" d="M584.302,414.283l11.051-0.776l4.847-19.451l-6.077-3.795
				C588.796,397.019,585.279,405.27,584.302,414.283z"/>
			<path style="fill:#1D1D1B;" d="M659.244,446.4l7.344,4.232c5.442-6.168,9.296-13.77,10.924-22.168v-0.002l-1.554-5.734
				l-13.661,2.298L659.244,446.4z"/>
			<path style="fill:#1D1D1B;" d="M607.766,378.484l7.009,2.278l5.2-7.156C615.639,374.662,611.539,376.319,607.766,378.484z"/>
			<path style="fill:#1D1D1B;" d="M664.853,386.378v13.792l10.829,3.519C673.359,397.13,669.628,391.238,664.853,386.378z"/>
		</g>
		<g>
			<path style="fill:#FFFFFF;" d="M308.474,146.71H98.025c-5.799,6.848-11.377,13.887-16.727,21.104h206.072V680.71H96.968
				c6.094,7.252,12.431,14.29,18.999,21.104h192.507V146.71z"/>
			<g>
				<circle style="fill:#FFFFFF;" cx="207.922" cy="424.263" r="25.705"/>
			</g>
			<g>
				<path style="fill:#FFFFFF;" d="M297.922,538.408v-21.104c51.303,0,93.041-41.738,93.041-93.042s-41.738-93.041-93.041-93.041
					v-21.104c62.94,0,114.146,51.206,114.146,114.146C412.067,487.203,360.862,538.408,297.922,538.408z"/>
			</g>
			<path style="fill:#FFFFFF;" d="M69.563,279.9H22.305c-1.588,4.63-3.096,9.298-4.522,14h37.781v260.725H24.363
				c1.693,4.707,3.469,9.374,5.325,14h39.875V279.9z"/>
		</g>
	</g>
</g>
<g id="Livello_1">
</g>
</svg>
