<?xml version="1.0" encoding="iso-8859-1"?>
<!-- Generator: Adobe Illustrator 19.2.1, SVG Export Plug-In . SVG Version: 6.00 Build 0)  -->
<!DOCTYPE svg PUBLIC "-//W3C//DTD SVG 1.1//EN" "http://www.w3.org/Graphics/SVG/1.1/DTD/svg11.dtd">
<svg version="1.1" xmlns="http://www.w3.org/2000/svg" xmlns:xlink="http://www.w3.org/1999/xlink" x="0px" y="0px"
	 viewBox="0 0 828.66 828.668" style="enable-background:new 0 0 828.66 828.668;" xml:space="preserve">
<g id="Referee">
	<g>
		<g>
			<g>
				<g>
					<path style="fill:#ACBF65;" d="M768.575,629.314c-0.8,1.32-1.61,2.63-2.42,3.93c-5.56,8.93-11.44,17.62-17.66,26.07
						c-2.6,3.55-5.26,7.06-7.98,10.52c-0.62,0.79-1.24,1.58-1.86,2.36c-46.45,58.35-108.35,103.93-179.59,130.48
						c-23.22,8.66-47.43,15.3-72.43,19.7c-8.61,1.52-17.31,2.77-26.1,3.74c-0.75,0.09-1.5,0.17-2.25,0.25
						c-0.81,0.08-1.62,0.16-2.43,0.24c-11.92,1.19-23.99,1.87-36.2,2.03c-12.68,0.16-25.24-0.25-37.65-1.21
						c-7.97-0.61-15.88-1.46-23.72-2.52c-131.9-17.83-244.38-97.85-306.52-209.88c-11.01-19.84-20.44-40.7-28.11-62.39
						c-14.74-41.63-23.02-86.36-23.62-132.98c-2.95-228.81,180.16-416.68,408.97-419.62c17.36-0.22,34.49,0.62,51.32,2.49
						c77.78,8.58,149.18,38.74,207.98,84.41c69.63,54.09,121.61,129.95,145.62,217.5v0.01c6.57,23.96,11.05,48.81,13.21,74.32
						c0.86,9.98,1.36,20.06,1.49,30.24C829.665,489.624,807.605,565.164,768.575,629.314z"/>
				</g>
			</g>
		</g>
		<path style="fill:#50535A;" d="M748.495,659.314c-2.6,3.55-5.26,7.06-7.98,10.52c-0.62,0.79-1.24,1.58-1.86,2.36
			c-46.45,58.35-108.35,103.93-179.59,130.48l-8.87-118.31l194.68-45L748.495,659.314z"/>
		<g>
			<path style="fill:#FFE2C5;" d="M425.185,362.57l-17,17l-23.37,23.37c-31.89-6.41-63.79-12.82-95.69-19.23
				c-22.75-4.57-45.51-9.14-68.26-13.71c-7.54-1.52-15.08-1.9-22.44-2.34c-4.32-0.26-8.57-0.53-12.72-1.07
				c-12.31-1.55-23.75-5.35-33.39-17.52c-0.36-0.48-0.72-0.95-1.08-1.42c-9.91-13.52-14.48-33-30.14-38.98
				c4.39,18.09,10.49,35.75,18.19,52.69c-30.6-4.09-61.37-6.98-92.2-8.67c-2.08,3.33,2,7.06,5.53,8.77
				c10.99,5.36,22.52,9.62,34.35,12.71c6.9,1.31,13.79,2.73,20.66,4.15c-6.96-0.98-13.86-2.37-20.66-4.15
				c-16.88-3.23-33.87-5.87-51.04-6.41c-2.1-0.07-4.6,0.09-5.71,1.88c-1.39,2.22,0.47,5.05,2.46,6.75
				c14.4,12.33,36.74,7.34,54.23,14.69c-16.86-3.67-34.58-3.3-51.27,1.05c13.13,11.81,32.34,12.57,50.16,12.14
				c-8.05,0.31-16.07,1.56-23.84,3.69c-4.41,1.21-9.75,4.5-8.4,8.87c0.46,1.48,1.65,2.62,2.91,3.52c7.79,5.59,18.39,4.25,27.85,2.67
				c21.58-3.6,43.17-7.21,64.75-10.82c11-1.84,22.31-3.79,31.79-9.67c1.04-0.65,2.06-1.36,3.04-2.12V402
				c0,0,211.57,73.24,224.09,63.85c6.42-4.82,18.01-20.29,27.77-34.2c9.24-13.18,16.84-24.96,16.84-24.96L425.185,362.57z
				 M198.915,377.55l-0.05-0.84C198.945,376.99,198.965,377.27,198.915,377.55z"/>
			<path style="fill:#50535A;" d="M796.995,414.204c-0.94-3.75-72.3,0.07-72.3,0.07l43.88,218.54c-0.8,1.32-1.61,2.63-2.42,3.93
				c-7.89,12.68-16.45,24.89-25.64,36.59l-214.86,40.38c0,0-27.71-297.63-29.35-295.75c-1.64,1.88-45.41,51.64-43.71,48.82
				s-67.78-130.51-67.78-130.51s71.25-68.86,111-77.22c39.76-8.35,111.52-28.06,111.52-28.06s146.63-6.63,156.02,35.94
				C766.895,283.004,796.225,410.544,796.995,414.204z"/>
			<linearGradient id="SVGID_1_" gradientUnits="userSpaceOnUse" x1="583.2181" y1="157.9369" x2="591.2181" y2="290.9369">
				<stop  offset="0" style="stop-color:#FFD7B6"/>
				<stop  offset="1" style="stop-color:#FFE2C5"/>
			</linearGradient>
			<path style="fill:url(#SVGID_1_);" d="M620.908,166.339c0,0-2.305,58.212,6.145,75.112c4.932,9.864-38.133,50.523-38.133,50.523
				l-38.722-32.914c0,0,11.133-63.316,7.377-70.976C553.819,180.422,620.908,166.339,620.908,166.339z"/>
			<path style="fill:#FFE2C5;" d="M455.245,17.94c-0.178,0.628-0.342,1.259-0.516,1.888c-0.012,0.039-0.023,0.073-0.034,0.112
				L455.245,17.94z"/>
			<path style="fill:#FFE2C5;" d="M651.307,94.36c7.05,30.37-4.59,63.92-27.72,84.56c-4.52,4.04-9.48,7.58-14.83,10.51
				c-13.63,7.47-29.4,11.33-41.3,21.33c-2.88,2.42-5.48,5.16-8.17,7.8c-2.08,2.02-4.21,3.98-6.56,5.68
				c-5.36,3.88-11.83,6.11-18.42,6.63c-7,0.57-14.16-0.8-20.34-4.16c-9.11-4.96-15.21-13.08-20.6-22.05
				c-1.63-2.7-3.19-5.48-4.75-8.28c-1.69-3.01-3.37-6.03-5.13-8.98c-3.42-5.73-7.13-11.21-11.71-15.86
				c-0.21-0.21-0.42-0.42-0.63-0.61c-13.08-12.86-48.05-37.206-44.45-57.54c1.219-6.887,22.724-63.716,30.984-93.562
				c2.851-9.518,4.8-12.503,8.296-16.328c77.78,8.58,149.18,38.74,207.98,84.41C667.767,94.13,659.347,97.49,651.307,94.36z"/>
			<path style="fill:none;stroke:#DBA470;stroke-width:3.1298;stroke-miterlimit:10;" d="M502.705,29.111
				c-5.453,20.034-13.448,39.375-23.731,57.412c-0.697,1.222-1.427,2.639-0.969,3.969c0.46,1.335,1.92,2.003,3.248,2.481
				c10.352,3.728,21.648,4.799,32.516,3.083"/>
			<linearGradient id="SVGID_2_" gradientUnits="userSpaceOnUse" x1="628.775" y1="105.8385" x2="593.5793" y2="125.7317">
				<stop  offset="0.1821" style="stop-color:#FFD7B6"/>
				<stop  offset="1" style="stop-color:#FFE2C5"/>
			</linearGradient>
			<path style="fill:url(#SVGID_2_);" d="M580.304,109.536c6.722-4.843,14.9-7.637,23.18-7.92c4.26-0.146,8.798,0.464,12.104,3.153
				c5.557,4.52,5.594,12.838,5.149,19.988c-0.193,3.105-0.423,6.337-1.982,9.028c-3.73,6.438-12.738,6.769-20.164,6.307"/>
			<path style="fill:#F2784B;" d="M485.651,157.218c-1.293-0.343-2.676-0.685-3.943-0.256c-1.09,0.369-1.914,1.251-2.691,2.101
				c-3.368,3.689-6.737,7.378-10.105,11.066c-7.818,8.562-16.097,18.222-16.313,29.814c-0.072,3.86,0.937,7.974,3.796,10.568
				c1.324,1.201,2.963,2.004,4.642,2.617c7.477,2.73,16.203,1.774,22.91-2.511c6.708-4.285,11.245-11.8,11.911-19.731
				c0.092-1.091,0.107-2.228-0.323-3.235c-0.379-0.887-1.078-1.605-1.858-2.173c-3.388-2.47-8.562-2.05-11.506,0.935
				c6.77-8.779,21.4-24.207,20.945-23.148L485.651,157.218z"/>
			<path style="fill:#FFD7B6;" d="M584.635,314.664c-1.002-0.726-2.003-1.452-3.005-2.178c0.069-0.1,0.138-0.2,0.207-0.3
				L584.635,314.664z"/>
			<g>
				<path style="fill:#FFD7B6;" d="M581.836,312.185c-0.06,0.088-0.121,0.176-0.182,0.264l2.441,1.737L581.836,312.185z"/>
				<linearGradient id="SVGID_3_" gradientUnits="userSpaceOnUse" x1="466.8514" y1="215.5566" x2="737.8514" y2="456.5565">
					<stop  offset="0" style="stop-color:#FFD7B6"/>
					<stop  offset="1" style="stop-color:#FFE2C5"/>
				</linearGradient>
				<path style="fill:url(#SVGID_3_);" d="M792.755,413.035l-60.114,0.844c0,0,1.23-4.343,2.44,7.758l-150.985-107.45l0.539,0.477
					c-1.002-0.726-2.003-1.452-3.005-2.178c0.008-0.012,0.017-0.024,0.025-0.036l-4.901-3.488
					c-9.878-7.161-19.755-14.31-29.633-21.464c-2.598-1.878-5.264-3.831-6.936-6.566c-1.333-2.184-1.947-4.732-2.404-7.255
					c-2.667-14.76-0.77-30.603-7.055-44.224c-7.067-15.317-22.823-24.375-37.633-32.45c-1.728-0.945-3.63-1.915-5.558-1.534
					c-2.604,0.519-4.156,3.455-4,6.103c0.15,2.654,1.584,5.039,3.061,7.242c3.781,5.615,8.163,10.823,13.057,15.499
					c-2.617,2.347-4.657,5.339-5.897,8.632c-1.59,4.225-2.892,9.903-7.374,10.441c-2.316,0.282-4.495-1.114-6.26-2.642
					c-6.598-5.677-10.679-13.859-12.701-22.322c-2.016-8.469-2.116-17.27-1.797-25.965c-6.485,0.05-10.573,7.042-12.106,13.339
					c-2.78,11.355-1.659,23.63,3.117,34.297c-7.317-5.709-11.067-15.061-11.987-24.306c-0.92-9.239,0.664-18.529,2.241-27.68
					c-3.098-0.263-6.078,1.627-7.881,4.156c-1.809,2.529-2.642,5.609-3.28,8.651c-2.911,13.852-2.485,28.4,1.246,42.058
					c-4.82-9.202-8.125-19.198-9.727-29.464c-0.413-2.616-2.291-6.159-4.62-4.895c-1.165,0.632-1.427,2.166-1.527,3.486
					c-0.952,12.763,0.889,25.727,5.358,37.721c-2.504-5.258-5.715-10.184-9.514-14.591c-1.152-1.333-2.529-2.71-4.288-2.848
					c-2.56-0.2-4.588,2.485-4.676,5.045c-0.082,2.566,1.202,4.951,2.441,7.199c6.41,11.549,12.939,23.261,22.222,32.657
					c19.78,20.012,49.57,26.866,77.707,26.747c3.962-0.019,7.95-0.15,11.843,0.557c16.844,3.055,44.468,25.22,44.581,25.251
					c0,0,150.158,136.009,185.344,165.942c0.512,0.444,1.023,0.874,1.533,1.298c3.708,3.124,5.781,4.741,5.781,4.449
					c0-0.03,0.004-0.072,0.007-0.113c10.957,7.246,22.341,8.934,37.577,0.147C815.662,490.809,792.755,413.035,792.755,413.035z"/>
			</g>
			<path style="fill:none;" d="M789.482,437.68"/>
			<path style="fill:#FFD7B6;" d="M86.969,374.168c6.898,1.314,13.783,2.735,20.657,4.156
				C100.665,377.336,93.767,375.946,86.969,374.168z"/>
			<path style="fill:#FFD7B6;" d="M584.635,314.664c-1.002-0.726-2.003-1.452-3.005-2.178c0.069-0.1,0.138-0.2,0.207-0.3
				L584.635,314.664z"/>
		</g>
	</g>
</g>
<g id="Livello_1">
</g>
</svg>
